<?xml version="1.0" standalone="no"?>
<!DOCTYPE svg PUBLIC "-//W3C//DTD SVG 20010904//EN"
 "http://www.w3.org/TR/2001/REC-SVG-20010904/DTD/svg10.dtd">
<svg version="1.0" xmlns="http://www.w3.org/2000/svg"
 width="700.000000pt" height="700.000000pt" viewBox="0 0 700.000000 700.000000"
 preserveAspectRatio="xMidYMid meet">
<metadata>
Created by potrace 1.11, written by Peter Selinger 2001-2013
</metadata>
<g transform="translate(0.000000,700.000000) scale(0.100000,-0.100000)"
fill="#000000" stroke="none">
<path d="M1750 6125 l0 -175 -175 0 -175 0 0 -175 0 -175 -175 0 -175 0 0
-175 0 -175 -175 0 -175 0 0 -875 0 -875 175 0 175 0 0 -525 0 -525 175 0 175
0 0 -175 0 -175 175 0 175 0 0 -175 0 -175 175 0 175 0 0 -175 0 -175 -525 0
-525 0 0 -175 0 -175 -175 0 -175 0 0 -525 0 -525 2800 0 2800 0 0 525 0 525
-175 0 -175 0 0 175 0 175 -525 0 -525 0 0 175 0 175 175 0 175 0 0 175 0 175
175 0 175 0 0 175 0 175 175 0 175 0 0 525 0 525 175 0 175 0 0 875 0 875
-175 0 -175 0 0 175 0 175 -175 0 -175 0 0 175 0 175 -175 0 -175 0 0 175 0
175 -1750 0 -1750 0 0 -175z"/>
</g>
</svg>
