<?xml version="1.0" standalone="no"?>
<!DOCTYPE svg PUBLIC "-//W3C//DTD SVG 20010904//EN"
 "http://www.w3.org/TR/2001/REC-SVG-20010904/DTD/svg10.dtd">
<svg version="1.0" xmlns="http://www.w3.org/2000/svg"
 width="387.000000pt" height="387.000000pt" viewBox="0 0 387.000000 387.000000"
 preserveAspectRatio="xMidYMid meet">
<metadata>
Created by potrace 1.11, written by Peter Selinger 2001-2013
</metadata>
<g transform="translate(0.000000,387.000000) scale(0.100000,-0.100000)"
fill="#000000" stroke="none">
<path d="M0 1935 l0 -1935 1168 0 c705 0 1172 4 1178 9 5 5 25 11 44 13 35 3
35 4 40 58 l5 55 50 0 50 0 0 -50 0 -50 -52 -3 c-29 -2 -56 -9 -63 -17 -11
-13 -2 -15 63 -15 42 0 79 5 82 10 3 6 17 10 30 10 13 0 27 -4 30 -10 4 -6
223 -10 626 -10 l619 0 0 1935 0 1935 -1935 0 -1935 0 0 -1935z m1088 1240 c2
-43 7 -84 12 -91 6 -6 46 -14 89 -17 44 -3 84 -8 90 -12 6 -3 11 -40 11 -84 0
-52 4 -82 13 -89 7 -6 51 -12 97 -14 l85 -3 3 -45 c2 -24 8 -50 14 -57 15 -19
811 -19 826 0 6 6 12 28 14 47 4 44 33 60 108 60 79 0 84 6 91 99 3 45 8 83
11 87 4 3 43 9 87 13 44 4 83 10 86 13 4 4 11 42 16 85 6 43 14 82 18 86 4 4
35 7 67 5 l59 -3 3 -80 c2 -43 8 -85 14 -92 6 -7 30 -13 53 -13 23 0 63 -3 89
-6 l46 -7 0 -82 c0 -54 4 -86 13 -92 6 -6 47 -13 89 -16 43 -3 82 -8 88 -12 6
-4 10 -74 10 -189 0 -135 3 -186 13 -194 6 -5 46 -11 87 -13 41 -1 80 -7 87
-11 13 -10 19 -543 6 -551 -5 -3 -90 -8 -190 -12 -151 -6 -185 -11 -197 -24
-12 -14 -16 -53 -18 -192 l-3 -174 -275 0 -275 0 -10 85 c-5 47 -14 91 -18 98
-6 9 -137 12 -596 12 -551 0 -589 -1 -604 -18 -11 -12 -17 -41 -19 -97 l-3
-80 -275 0 -275 0 -6 178 c-5 113 -11 183 -18 190 -7 7 -82 16 -189 22 l-177
10 0 280 0 280 25 1 c14 0 55 1 92 2 53 2 69 6 77 20 5 9 12 96 16 192 4 96
10 179 14 183 5 4 40 11 80 14 86 7 101 22 101 98 0 92 2 93 92 101 94 8 103
17 111 111 3 34 8 67 12 73 4 7 31 10 68 8 l62 -3 3 -80z m-411 -1425 c2 -52
6 -137 9 -188 5 -84 8 -93 27 -97 12 -3 150 -4 307 -3 l285 3 5 95 5 95 574 3
c316 1 578 -1 583 -6 4 -4 11 -47 14 -95 l7 -87 31 -5 c17 -3 155 -4 306 -3
l275 3 5 190 5 190 56 1 c89 2 120 -5 110 -25 -10 -19 -26 -125 -40 -262 -12
-122 -38 -183 -104 -247 -29 -27 -68 -68 -87 -90 -19 -22 -59 -58 -89 -79 -30
-21 -62 -47 -72 -58 -87 -97 -159 -169 -186 -185 -18 -11 -33 -25 -33 -32 0
-13 -30 -59 -79 -125 -14 -18 -44 -40 -68 -49 -30 -12 -43 -23 -43 -36 0 -56
-76 -138 -157 -169 -39 -14 -740 -13 -795 1 -99 27 -176 85 -202 154 -12 32
-25 47 -45 54 -16 6 -41 27 -57 49 -83 114 -124 161 -245 279 -173 168 -199
195 -268 279 -81 98 -100 140 -107 232 -6 90 -33 214 -58 261 -16 32 -16 32 6
32 13 0 30 5 38 10 8 6 31 9 50 8 l35 -3 2 -95z m1411 -1377 l3 -61 -57 -8
c-81 -10 -255 2 -266 18 -14 22 -9 86 8 103 13 13 39 15 162 13 l147 -3 3 -62z"/>
<path d="M705 2470 c-16 -18 -17 -34 -9 -207 l9 -188 120 -8 c120 -8 649 -2
664 8 5 2 12 90 16 195 6 145 4 194 -5 205 -11 13 -68 15 -395 15 -367 0 -383
-1 -400 -20z m170 -295 l0 -90 -68 -3 c-42 -2 -74 2 -83 9 -15 12 -21 159 -7
173 4 4 41 5 83 4 l75 -3 0 -90z m610 0 l0 -90 -85 0 -85 0 -3 79 c-2 44 -1
85 2 93 4 11 25 13 88 11 l83 -3 0 -90z m-548 39 c-3 -3 -12 -4 -19 -1 -8 3
-5 6 6 6 11 1 17 -2 13 -5z m3 -68 c0 -7 14 -19 31 -26 35 -15 23 -28 -26 -26
-26 1 -30 5 -31 34 -1 21 3 32 12 32 8 0 14 -6 14 -14z m117 -42 c-3 -3 -12
-4 -19 -1 -8 3 -5 6 6 6 11 1 17 -2 13 -5z"/>
<path d="M2295 2470 c-16 -17 -17 -35 -10 -205 4 -102 10 -187 14 -189 16 -11
418 -18 602 -11 l207 7 7 194 c5 148 4 198 -5 209 -11 13 -70 15 -405 15 -376
0 -393 -1 -410 -20z m180 -295 l0 -90 -85 0 -85 0 -3 79 c-2 44 -1 85 2 93 4
11 25 13 88 11 l83 -3 0 -90z m619 79 c12 -32 6 -151 -8 -163 -9 -8 -43 -11
-93 -9 l-78 3 -3 79 c-2 44 -1 85 2 93 8 21 172 18 180 -3z m-557 -40 c-3 -3
-12 -4 -19 -1 -8 3 -5 6 6 6 11 1 17 -2 13 -5z m3 -62 c0 -4 14 -16 31 -26 36
-21 25 -34 -26 -32 -26 1 -30 5 -31 34 -1 21 3 32 12 32 8 0 14 -4 14 -8z
m103 -49 c-7 -2 -19 -2 -25 0 -7 3 -2 5 12 5 14 0 19 -2 13 -5z"/>
<path d="M1491 1476 c-8 -9 -11 -48 -9 -112 l3 -99 410 0 410 0 0 110 0 110
-401 3 c-335 2 -403 0 -413 -12z m784 -101 l0 -80 -380 0 -380 0 -3 69 c-2 38
-1 75 2 83 5 11 72 13 383 11 l378 -3 0 -80z"/>
</g>
</svg>
