<svg xmlns="http://www.w3.org/2000/svg" viewBox="0 0 350 456" class="polylion"><defs><filter id="polycleaner" color-interpolation-filters="sRGB"><feComponentTransfer><feFuncA type="table" tableValues="0 0.5 1 1"/></feComponentTransfer></filter></defs><path transform="matrix(-.99652 0 0 .99795 564.04 -80.526)" filter="url(#polycleaner)" fill="#fadfaa" d="M380 128l-41-30 53-13z"/><path transform="matrix(-.99652 0 0 .99795 564.04 -80.526)" filter="url(#polycleaner)" fill="#eaba8c" d="M380 128l32-17-20-26z"/><path transform="matrix(-.99652 0 0 .99795 564.04 -80.526)" filter="url(#polycleaner)" fill="#fad398" d="M380 128l-40 12-1-42z"/><path transform="matrix(-.99652 0 0 .99795 564.04 -80.526)" filter="url(#polycleaner)" fill="#dfa387" d="M340 140l-31 2 30-44z"/><path transform="matrix(-.99652 0 0 .99795 564.04 -80.526)" filter="url(#polycleaner)" fill="#f9d8ad" d="M309 142l-23-9 53-35z"/><path transform="matrix(-.99652 0 0 .99795 564.04 -80.526)" filter="url(#polycleaner)" fill="#dbb08e" d="M412 111l31-10-51-16z"/><path transform="matrix(-.99652 0 0 .99795 564.04 -80.526)" filter="url(#polycleaner)" fill="#d59f7d" d="M412 111l22 15 9-25z"/><path transform="matrix(-.99652 0 0 .99795 564.04 -80.526)" filter="url(#polycleaner)" fill="#facc91" d="M434 126l41-4-32-21z"/><path transform="matrix(-.99652 0 0 .99795 564.04 -80.526)" filter="url(#polycleaner)" fill="#ce8670" d="M380 128l22 4 10-21z"/><path transform="matrix(-.99652 0 0 .99795 564.04 -80.526)" filter="url(#polycleaner)" fill="#bc716c" d="M402 132l16 10-6-31zM340 140l-31 45v-43z"/><path transform="matrix(-.99652 0 0 .99795 564.04 -80.526)" filter="url(#polycleaner)" fill="#d1806d" d="M434 126l-16 16-6-31z"/><path transform="matrix(-.99652 0 0 .99795 564.04 -80.526)" filter="url(#polycleaner)" fill="#f8dc9b" d="M475 122l-13 15-28-11z"/><path transform="matrix(-.99652 0 0 .99795 564.04 -80.526)" filter="url(#polycleaner)" fill="#fad295" d="M462 137l47 2-34-17z"/><path transform="matrix(-.99652 0 0 .99795 564.04 -80.526)" filter="url(#polycleaner)" fill="#dc8c6b" d="M462 137l-37 18 9-29z"/><path transform="matrix(-.99652 0 0 .99795 564.04 -80.526)" filter="url(#polycleaner)" fill="#ec9b6c" d="M425 155l-7-13 16-16z"/><path transform="matrix(-.99652 0 0 .99795 564.04 -80.526)" filter="url(#polycleaner)" fill="#e49c76" d="M402 132l-33 24 11-28z"/><path transform="matrix(-.99652 0 0 .99795 564.04 -80.526)" filter="url(#polycleaner)" fill="#dd8d76" d="M369 156l-29-16 40-12z"/><path transform="matrix(-.99652 0 0 .99795 564.04 -80.526)" filter="url(#polycleaner)" fill="#db8a6f" d="M396 168l-27-12 33-24z"/><path transform="matrix(-.99652 0 0 .99795 564.04 -80.526)" filter="url(#polycleaner)" fill="#fbc27f" d="M509 139l-18 32-29-34z"/><path transform="matrix(-.99652 0 0 .99795 564.04 -80.526)" filter="url(#polycleaner)" fill="#ce7660" d="M462 137l-1 36-36-18z"/><path transform="matrix(-.99652 0 0 .99795 564.04 -80.526)" filter="url(#polycleaner)" fill="#bf5d76" d="M327 193l-18-8 31-45z"/><path transform="matrix(-.99652 0 0 .99795 564.04 -80.526)" filter="url(#polycleaner)" fill="#a8526d" d="M418 142l-22 26 6-36z"/><path transform="matrix(-.99652 0 0 .99795 564.04 -80.526)" filter="url(#polycleaner)" fill="#f6b78b" d="M309 142l-17 37-6-46z"/><path transform="matrix(-.99652 0 0 .99795 564.04 -80.526)" filter="url(#polycleaner)" fill="#f7cb8c" d="M491 171l51-17-33-15z"/><path transform="matrix(-.99652 0 0 .99795 564.04 -80.526)" filter="url(#polycleaner)" fill="#d99860" d="M491 171l29 21 22-38z"/><path transform="matrix(-.99652 0 0 .99795 564.04 -80.526)" filter="url(#polycleaner)" fill="#d4846d" d="M410 172l15-17-7-13z"/><path transform="matrix(-.99652 0 0 .99795 564.04 -80.526)" filter="url(#polycleaner)" fill="#efa872" d="M425 155l6 33-21-16z"/><path transform="matrix(-.99652 0 0 .99795 564.04 -80.526)" filter="url(#polycleaner)" fill="#954a5e" d="M460 187l1-14-36-18z"/><path transform="matrix(-.99652 0 0 .99795 564.04 -80.526)" filter="url(#polycleaner)" fill="#c46374" d="M340 140l4 48 25-32z"/><path transform="matrix(-.99652 0 0 .99795 564.04 -80.526)" filter="url(#polycleaner)" fill="#b95e7f" d="M292 179l-34-18 28-28z"/><path transform="matrix(-.99652 0 0 .99795 564.04 -80.526)" filter="url(#polycleaner)" fill="#944f8b" d="M261 177l-6 18 3-34z"/><path transform="matrix(-.99652 0 0 .99795 564.04 -80.526)" filter="url(#polycleaner)" fill="#b45e69" d="M396 168l14 4 8-30z"/><path transform="matrix(-.99652 0 0 .99795 564.04 -80.526)" filter="url(#polycleaner)" fill="#d7835f" d="M461 173l30-2-29-34z"/><path transform="matrix(-.99652 0 0 .99795 564.04 -80.526)" filter="url(#polycleaner)" fill="#bd6d56" d="M482 192h38l-29-21z"/><path transform="matrix(-.99652 0 0 .99795 564.04 -80.526)" filter="url(#polycleaner)" fill="#b05d59" d="M491 171l-9 21-21-19z"/><path transform="matrix(-.99652 0 0 .99795 564.04 -80.526)" filter="url(#polycleaner)" fill="#82365a" d="M482 192l-22-5 1-14z"/><path transform="matrix(-.99652 0 0 .99795 564.04 -80.526)" filter="url(#polycleaner)" fill="#9c4083" d="M292 179l-31-2-3-16z"/><path transform="matrix(-.99652 0 0 .99795 564.04 -80.526)" filter="url(#polycleaner)" fill="#b75d79" d="M292 179l17 6v-43z"/><path transform="matrix(-.99652 0 0 .99795 564.04 -80.526)" filter="url(#polycleaner)" fill="#f9cb8d" d="M362 192l18-9-11-27z"/><path transform="matrix(-.99652 0 0 .99795 564.04 -80.526)" filter="url(#polycleaner)" fill="#c86e78" d="M301 203l-23-12 14-12z"/><path transform="matrix(-.99652 0 0 .99795 564.04 -80.526)" filter="url(#polycleaner)" fill="#ea9e86" d="M292 179l-14 12-17-14z"/><path transform="matrix(-.99652 0 0 .99795 564.04 -80.526)" filter="url(#polycleaner)" fill="#af5078" d="M309 185l-8 18-9-24z"/><path transform="matrix(-.99652 0 0 .99795 564.04 -80.526)" filter="url(#polycleaner)" fill="#d59071" d="M344 188l18 4 7-36z"/><path transform="matrix(-.99652 0 0 .99795 564.04 -80.526)" filter="url(#polycleaner)" fill="#f9cd90" d="M425 155l35 32-29 1z"/><path transform="matrix(-.99652 0 0 .99795 564.04 -80.526)" filter="url(#polycleaner)" fill="#ad4f74" d="M344 188l-17 5 13-53z"/><path transform="matrix(-.99652 0 0 .99795 564.04 -80.526)" filter="url(#polycleaner)" fill="#e0a072" d="M380 206l8-19-8-4z"/><path transform="matrix(-.99652 0 0 .99795 564.04 -80.526)" filter="url(#polycleaner)" fill="#e8aa7d" d="M322 223l20-15 2-20z"/><path transform="matrix(-.99652 0 0 .99795 564.04 -80.526)" filter="url(#polycleaner)" fill="#ecb984" d="M388 187l8-19-16 15z"/><path transform="matrix(-.99652 0 0 .99795 564.04 -80.526)" filter="url(#polycleaner)" fill="#f9d49d" d="M408 193l-12-25-8 19zM396 168l-27-12 11 27z"/><path transform="matrix(-.99652 0 0 .99795 564.04 -80.526)" filter="url(#polycleaner)" fill="#edad87" d="M278 191l-23 4 6-18z"/><path transform="matrix(-.99652 0 0 .99795 564.04 -80.526)" filter="url(#polycleaner)" fill="#a55079" d="M277 203h24l-23-12z"/><path transform="matrix(-.99652 0 0 .99795 564.04 -80.526)" filter="url(#polycleaner)" fill="#f3bb7e" d="M388 187l20 6-28 13z"/><path transform="matrix(-.99652 0 0 .99795 564.04 -80.526)" filter="url(#polycleaner)" fill="#f7bc76" d="M460 187l4 21-33-20z"/><path transform="matrix(-.99652 0 0 .99795 564.04 -80.526)" filter="url(#polycleaner)" fill="#cc8571" d="M362 192l-20 16 2-20z"/><path transform="matrix(-.99652 0 0 .99795 564.04 -80.526)" filter="url(#polycleaner)" fill="#f7c185" d="M380 183v23l-18-14z"/><path transform="matrix(-.99652 0 0 .99795 564.04 -80.526)" filter="url(#polycleaner)" fill="#8a4256" d="M490 213l-8-21-22-5z"/><path transform="matrix(-.99652 0 0 .99795 564.04 -80.526)" filter="url(#polycleaner)" fill="#dc9d72" d="M380 206l-19-1 1-13z"/><path transform="matrix(-.99652 0 0 .99795 564.04 -80.526)" filter="url(#polycleaner)" fill="#c9766e" d="M344 188l-22 35 5-30z"/><path transform="matrix(-.99652 0 0 .99795 564.04 -80.526)" filter="url(#polycleaner)" fill="#a35370" d="M322 223l-16-6 21-24z"/><path transform="matrix(-.99652 0 0 .99795 564.04 -80.526)" filter="url(#polycleaner)" fill="#b4607a" d="M278 191l-1 12-22-8z"/><path transform="matrix(-.99652 0 0 .99795 564.04 -80.526)" filter="url(#polycleaner)" fill="#a5497a" d="M277 203l-25 19 3-27z"/><path transform="matrix(-.99652 0 0 .99795 564.04 -80.526)" filter="url(#polycleaner)" fill="#933a73" d="M306 217l21-24-18-8-8 18z"/><path transform="matrix(-.99652 0 0 .99795 564.04 -80.526)" filter="url(#polycleaner)" fill="#c67468" d="M361 205l-13 18 14-31z"/><path transform="matrix(-.99652 0 0 .99795 564.04 -80.526)" filter="url(#polycleaner)" fill="#662366" d="M361 205l19 1-32 17z"/><path transform="matrix(-.99652 0 0 .99795 564.04 -80.526)" filter="url(#polycleaner)" fill="#974f53" d="M520 205v-13h-38l8 21z"/><path transform="matrix(-.99652 0 0 .99795 564.04 -80.526)" filter="url(#polycleaner)" fill="#e19e67" d="M464 208l26 5-30-26z"/><path transform="matrix(-.99652 0 0 .99795 564.04 -80.526)" filter="url(#polycleaner)" fill="#b26369" d="M362 192l-14 31-6-15z"/><path transform="matrix(-.99652 0 0 .99795 564.04 -80.526)" filter="url(#polycleaner)" fill="#5e2a50" d="M520 205l9 13-39-5z"/><path transform="matrix(-.99652 0 0 .99795 564.04 -80.526)" filter="url(#polycleaner)" fill="#db9460" d="M490 213l-22 7-4-12z"/><path transform="matrix(-.99652 0 0 .99795 564.04 -80.526)" filter="url(#polycleaner)" fill="#6a2774" d="M301 203h-24l17 18 12-4z"/><path transform="matrix(-.99652 0 0 .99795 564.04 -80.526)" filter="url(#polycleaner)" fill="#8f4a4f" d="M529 218l-29 27-10-32z"/><path transform="matrix(-.99652 0 0 .99795 564.04 -80.526)" filter="url(#polycleaner)" fill="#802a75" d="M252 222l42-1-17-18z"/><path transform="matrix(-.99652 0 0 .99795 564.04 -80.526)" filter="url(#polycleaner)" fill="#f9c589" d="M348 223h-26l20-15z"/><path transform="matrix(-.99652 0 0 .99795 564.04 -80.526)" filter="url(#polycleaner)" fill="#a75472" d="M294 221l-7 15-35-14z"/><path transform="matrix(-.99652 0 0 .99795 564.04 -80.526)" filter="url(#polycleaner)" fill="#f1bb7f" d="M348 223l-17 30-9-30z"/><path transform="matrix(-.99652 0 0 .99795 564.04 -80.526)" filter="url(#polycleaner)" fill="#d8996e" d="M348 223l-6 22-11 8z"/><path transform="matrix(-.99652 0 0 .99795 564.04 -80.526)" filter="url(#polycleaner)" fill="#a05a50" d="M529 218l-31 55 2-28z"/><path transform="matrix(-.99652 0 0 .99795 564.04 -80.526)" filter="url(#polycleaner)" fill="#f8bf7a" d="M351 253l-6 27-14-27z"/><path transform="matrix(-.99652 0 0 .99795 564.04 -80.526)" filter="url(#polycleaner)" fill="#eea65a" d="M509 320l11-41-22-6z"/><path transform="matrix(-.99652 0 0 .99795 564.04 -80.526)" filter="url(#polycleaner)" fill="#bb6c4b" d="M498 273l-27 30-3-19z"/><path transform="matrix(-.99652 0 0 .99795 564.04 -80.526)" filter="url(#polycleaner)" fill="#e89553" d="M498 273l11 47-38-17z"/><path transform="matrix(-.99652 0 0 .99795 564.04 -80.526)" filter="url(#polycleaner)" fill="#b77954" d="M509 320h-43l5-17z"/><path transform="matrix(-.99652 0 0 .99795 564.04 -80.526)" filter="url(#polycleaner)" fill="#a15b53" d="M509 320l-41 18-2-18z"/><path transform="matrix(-.99652 0 0 .99795 564.04 -80.526)" filter="url(#polycleaner)" fill="#f2ba70" d="M509 320l13 10-2-51z"/><path transform="matrix(-.99652 0 0 .99795 564.04 -80.526)" filter="url(#polycleaner)" fill="#bc7255" d="M522 330l40 1-28-27z"/><path transform="matrix(-.99652 0 0 .99795 564.04 -80.526)" filter="url(#polycleaner)" fill="#a5625c" d="M562 331l-12 55-28-56z"/><path transform="matrix(-.99652 0 0 .99795 564.04 -80.526)" filter="url(#polycleaner)" fill="#cd8754" d="M522 330l-32 21 19-31z"/><path transform="matrix(-.99652 0 0 .99795 564.04 -80.526)" filter="url(#polycleaner)" fill="#af6751" d="M490 351l-22-13 41-18z"/><path transform="matrix(-.99652 0 0 .99795 564.04 -80.526)" filter="url(#polycleaner)" fill="#bf7b54" d="M490 351l-50 31 28-44z"/><path transform="matrix(-.99652 0 0 .99795 564.04 -80.526)" filter="url(#polycleaner)" fill="#a65e52" d="M440 382l4-32 24-12z"/><path transform="matrix(-.99652 0 0 .99795 564.04 -80.526)" filter="url(#polycleaner)" fill="#e6a56d" d="M522 330l-10 52-22-31z"/><path transform="matrix(-.99652 0 0 .99795 564.04 -80.526)" filter="url(#polycleaner)" fill="#ce875b" d="M512 382l-43 12 21-43z"/><path transform="matrix(-.99652 0 0 .99795 564.04 -80.526)" filter="url(#polycleaner)" fill="#db925d" d="M469 394l-29-12 50-31z"/><path transform="matrix(-.99652 0 0 .99795 564.04 -80.526)" filter="url(#polycleaner)" fill="#753653" d="M440 382l-42 20 4-48z"/><path transform="matrix(-.99652 0 0 .99795 564.04 -80.526)" filter="url(#polycleaner)" fill="#8e4e5c" d="M512 382l38 4-28-56z"/><path transform="matrix(-.99652 0 0 .99795 564.04 -80.526)" filter="url(#polycleaner)" fill="#712f53" d="M398 402l34 24 8-44z"/><path transform="matrix(-.99652 0 0 .99795 564.04 -80.526)" filter="url(#polycleaner)" fill="#c37456" d="M432 426l37-32-29-12z"/><path transform="matrix(-.99652 0 0 .99795 564.04 -80.526)" filter="url(#polycleaner)" fill="#6a275d" d="M550 386l-60 77 22-81z"/><path transform="matrix(-.99652 0 0 .99795 564.04 -80.526)" filter="url(#polycleaner)" fill="#7a385c" d="M490 463l-21-69 43-12z"/><path transform="matrix(-.99652 0 0 .99795 564.04 -80.526)" filter="url(#polycleaner)" fill="#9f4e5f" d="M490 463l-58-37 37-32z"/><path transform="matrix(-.99652 0 0 .99795 564.04 -80.526)" filter="url(#polycleaner)" fill="#812f5d" d="M490 463l-68-12 10-25z"/><path transform="matrix(-.99652 0 0 .99795 564.04 -80.526)" filter="url(#polycleaner)" fill="#c58468" d="M449 208l-9 2-9-22z"/><path transform="matrix(-.99652 0 0 .99795 564.04 -80.526)" filter="url(#polycleaner)" fill="#bc716b" d="M410 172l-2 21-12-25z"/><path transform="matrix(-.99652 0 0 .99795 564.04 -80.526)" filter="url(#polycleaner)" fill="#c58468" d="M408 193l23-5-21-16z"/><path transform="matrix(-.99652 0 0 .99795 564.04 -80.526)" filter="url(#polycleaner)" fill="#d1885f" d="M423 235l21-15-24-7z"/><path transform="matrix(-.99652 0 0 .99795 564.04 -80.526)" filter="url(#polycleaner)" fill="#d99c6f" d="M408 193l12 20-40-7z"/><path transform="matrix(-.99652 0 0 .99795 564.04 -80.526)" filter="url(#polycleaner)" fill="#d59764" d="M440 210l-9-22-23 5z"/><path transform="matrix(-.99652 0 0 .99795 564.04 -80.526)" filter="url(#polycleaner)" fill="#d1885f" d="M420 213l20-3-32-17z"/><path transform="matrix(-.99652 0 0 .99795 564.04 -80.526)" filter="url(#polycleaner)" fill="#87386f" d="M306 217l-12 32v-28z"/><path transform="matrix(-.99652 0 0 .99795 564.04 -80.526)" filter="url(#polycleaner)" fill="#af5c6e" d="M287 236l7-15v28z"/><path transform="matrix(-.99652 0 0 .99795 564.04 -80.526)" filter="url(#polycleaner)" fill="#c0724c" d="M498 273l22 6 9-61z"/><path transform="matrix(-.99652 0 0 .99795 564.04 -80.526)" filter="url(#polycleaner)" fill="#d48c51" d="M520 279l20-19-11-42z"/><path transform="matrix(-.99652 0 0 .99795 564.04 -80.526)" filter="url(#polycleaner)" fill="#af5c6e" d="M306 217l16 6-28 26z"/><path transform="matrix(-.99652 0 0 .99795 564.04 -80.526)" filter="url(#polycleaner)" fill="#55276f" d="M287 236l7 13-42-27z"/><path transform="matrix(-.99652 0 0 .99795 564.04 -80.526)" filter="url(#polycleaner)" fill="#ebac79" d="M342 245l9 8h-20z"/><path transform="matrix(-.99652 0 0 .99795 564.04 -80.526)" filter="url(#polycleaner)" fill="#662873" d="M294 249l-49-4 7-23z"/><path transform="matrix(-.99652 0 0 .99795 564.04 -80.526)" filter="url(#polycleaner)" fill="#7a2b6d" d="M294 249l-28 21-21-25z"/><path transform="matrix(-.99652 0 0 .99795 564.04 -80.526)" filter="url(#polycleaner)" fill="#d4846b" d="M322 223l9 30-37-4z"/><path transform="matrix(-.99652 0 0 .99795 564.04 -80.526)" filter="url(#polycleaner)" fill="#ebac79" d="M331 253l-32 11-5-15z"/><path transform="matrix(-.99652 0 0 .99795 564.04 -80.526)" filter="url(#polycleaner)" fill="#e29f70" d="M331 253l14 27-46-16z"/><path transform="matrix(-.99652 0 0 .99795 564.04 -80.526)" filter="url(#polycleaner)" fill="#edb05f" d="M522 330l12-26-14-25z"/><path transform="matrix(-.99652 0 0 .99795 564.04 -80.526)" filter="url(#polycleaner)" fill="#dc9b59" d="M534 304l6-44-20 19z"/><path transform="matrix(-.99652 0 0 .99795 564.04 -80.526)" filter="url(#polycleaner)" fill="#ca834d" d="M534 304l28 27-22-71z"/><path transform="matrix(-.99652 0 0 .99795 564.04 -80.526)" filter="url(#polycleaner)" fill="#d68c6f" d="M299 264l-33 6 28-21z"/><path transform="matrix(-.99652 0 0 .99795 564.04 -80.526)" filter="url(#polycleaner)" fill="#b46868" d="M299 264l-27 37-6-31z"/><path transform="matrix(-.99652 0 0 .99795 564.04 -80.526)" filter="url(#polycleaner)" fill="#985066" d="M272 301l-38 98-14-93z"/><path transform="matrix(-.99652 0 0 .99795 564.04 -80.526)" filter="url(#polycleaner)" fill="#fac174" d="M471 303l-19 8 16-27z"/><path transform="matrix(-.99652 0 0 .99795 564.04 -80.526)" filter="url(#polycleaner)" fill="#5a2750" d="M440 382l-38-28 42-4z"/><path transform="matrix(-.99652 0 0 .99795 564.04 -80.526)" filter="url(#polycleaner)" fill="#bc7652" d="M367 430l1-21-71-33z"/><path transform="matrix(-.99652 0 0 .99795 564.04 -80.526)" filter="url(#polycleaner)" fill="#4f1e56" d="M297 376l70 54-133-31z"/><path transform="matrix(-.99652 0 0 .99795 564.04 -80.526)" filter="url(#polycleaner)" fill="#984b5b" d="M422 451l-4 25-12-31z"/><path transform="matrix(-.99652 0 0 .99795 564.04 -80.526)" filter="url(#polycleaner)" fill="#5d2c4c" d="M390 471l4 54-160-126z"/><path transform="matrix(-.99652 0 0 .99795 564.04 -80.526)" filter="url(#polycleaner)" fill="#854659" d="M422 451l-16-6 26-19z"/><path transform="matrix(-.99652 0 0 .99795 564.04 -80.526)" filter="url(#polycleaner)" fill="#a45b55" d="M432 426l-41-6 15 25z"/><path transform="matrix(-.99652 0 0 .99795 564.04 -80.526)" filter="url(#polycleaner)" fill="#5d2552" d="M367 430l23 41-156-72z"/><path transform="matrix(-.99652 0 0 .99795 564.04 -80.526)" filter="url(#polycleaner)" fill="#853e5c" d="M390 471l28 5-12-31z"/><path transform="matrix(-.99652 0 0 .99795 564.04 -80.526)" filter="url(#polycleaner)" fill="#5d2552" d="M418 476l72-13-68-12z"/><path transform="matrix(-.99652 0 0 .99795 564.04 -80.526)" filter="url(#polycleaner)" fill="#732f62" d="M490 463l-96 62 24-49z"/><path transform="matrix(-.99652 0 0 .99795 564.04 -80.526)" filter="url(#polycleaner)" fill="#914758" d="M418 476l-28-5 4 54z"/><path transform="matrix(-.99652 0 0 .99795 564.04 -80.526)" filter="url(#polycleaner)" fill="#974e65" d="M351 253l-3-30-6 22z"/><path transform="matrix(-.99652 0 0 .99795 564.04 -80.526)" filter="url(#polycleaner)" fill="#a85e6d" d="M272 301l-52 5 46-36z"/><path transform="matrix(-.99652 0 0 .99795 564.04 -80.526)" filter="url(#polycleaner)" fill="#7a336f" d="M266 270l-21-25-25 61z"/><path transform="matrix(-.99652 0 0 .99795 564.04 -80.526)" filter="url(#polycleaner)" fill="#c78c6c" d="M365 226l14 19-28 8z"/><path transform="matrix(-.99652 0 0 .99795 564.04 -80.526)" filter="url(#polycleaner)" fill="#f8d088" d="M452 311l-11-29 27 2z"/><path transform="matrix(-.99652 0 0 .99795 564.04 -80.526)" filter="url(#polycleaner)" fill="#633752" d="M441 282l-14 13 3-19z"/><path transform="matrix(-.99652 0 0 .99795 564.04 -80.526)" filter="url(#polycleaner)" fill="#f7db9c" d="M441 282l11 29-25-16z"/><path transform="matrix(-.99652 0 0 .99795 564.04 -80.526)" filter="url(#polycleaner)" fill="#fad58e" d="M427 295l-22 20 11-32z"/><path transform="matrix(-.99652 0 0 .99795 564.04 -80.526)" filter="url(#polycleaner)" fill="#6c2861" d="M234 399l63-23-25-75z"/><path transform="matrix(-.99652 0 0 .99795 564.04 -80.526)" filter="url(#polycleaner)" fill="#c9a26b" d="M405 315l22-9v-11z"/><path transform="matrix(-.99652 0 0 .99795 564.04 -80.526)" filter="url(#polycleaner)" fill="#744154" d="M427 312l25 5-25-11z"/><path transform="matrix(-.99652 0 0 .99795 564.04 -80.526)" filter="url(#polycleaner)" fill="#ac6960" d="M297 376l10-67-35-8z"/><path transform="matrix(-.99652 0 0 .99795 564.04 -80.526)" filter="url(#polycleaner)" fill="#5f3752" d="M427 306v6l-22 3z"/><path transform="matrix(-.99652 0 0 .99795 564.04 -80.526)" filter="url(#polycleaner)" fill="#c99667" d="M427 312l-5 11-17-8z"/><path transform="matrix(-.99652 0 0 .99795 564.04 -80.526)" filter="url(#polycleaner)" fill="#f2b66e" d="M466 320l2 18-16-21z"/><path transform="matrix(-.99652 0 0 .99795 564.04 -80.526)" filter="url(#polycleaner)" fill="#f9cc89" d="M468 338l-24 12 8-33z"/><path transform="matrix(-.99652 0 0 .99795 564.04 -80.526)" filter="url(#polycleaner)" fill="#d3a46c" d="M444 350l-31-15-11 19z"/><path transform="matrix(-.99652 0 0 .99795 564.04 -80.526)" filter="url(#polycleaner)" fill="#e8b576" d="M422 323l-39 8 30 4z"/><path transform="matrix(-.99652 0 0 .99795 564.04 -80.526)" filter="url(#polycleaner)" fill="#d88f5a" d="M364 359l4 50-71-33z"/><path transform="matrix(-.99652 0 0 .99795 564.04 -80.526)" filter="url(#polycleaner)" fill="#ad654f" d="M368 409l13-48-17-2z"/><path transform="matrix(-.99652 0 0 .99795 564.04 -80.526)" filter="url(#polycleaner)" fill="#792e55" d="M390 471l16-26-39-15z"/><path transform="matrix(-.99652 0 0 .99795 564.04 -80.526)" filter="url(#polycleaner)" fill="#f1bf7a" d="M444 350l-22-27-9 12z"/><path transform="matrix(-.99652 0 0 .99795 564.04 -80.526)" filter="url(#polycleaner)" fill="#c39160" d="M413 335l-11 19-19-23z"/><path transform="matrix(-.99652 0 0 .99795 564.04 -80.526)" filter="url(#polycleaner)" fill="#bb875f" d="M422 323l-39 8 22-16z"/><path transform="matrix(-.99652 0 0 .99795 564.04 -80.526)" filter="url(#polycleaner)" fill="#f7d79a" d="M444 350l8-33-30 6z"/><path transform="matrix(-.99652 0 0 .99795 564.04 -80.526)" filter="url(#polycleaner)" fill="#deb072" d="M452 317l-25-5-5 11z"/><path transform="matrix(-.99652 0 0 .99795 564.04 -80.526)" filter="url(#polycleaner)" fill="#d38e57" d="M452 317v-6l19-8-5 17z"/><path transform="matrix(-.99652 0 0 .99795 564.04 -80.526)" filter="url(#polycleaner)" fill="#deb072" d="M452 317l-25-11 25 5z"/><path transform="matrix(-.99652 0 0 .99795 564.04 -80.526)" filter="url(#polycleaner)" fill="#b88864" d="M452 311l-25-16v11z"/><path transform="matrix(-.99652 0 0 .99795 564.04 -80.526)" filter="url(#polycleaner)" fill="#8e4453" d="M405 315l-28-8-1 15z"/><path transform="matrix(-.99652 0 0 .99795 564.04 -80.526)" filter="url(#polycleaner)" fill="#a06057" d="M377 307l-9-17-3 21z"/><path transform="matrix(-.99652 0 0 .99795 564.04 -80.526)" filter="url(#polycleaner)" fill="#e2a76b" d="M405 315l-11-20-17 12z"/><path transform="matrix(-.99652 0 0 .99795 564.04 -80.526)" filter="url(#polycleaner)" fill="#f9db9f" d="M394 295l22-12-11 32z"/><path transform="matrix(-.99652 0 0 .99795 564.04 -80.526)" filter="url(#polycleaner)" fill="#e79c62" d="M297 376l57-64-47-3z"/><path transform="matrix(-.99652 0 0 .99795 564.04 -80.526)" filter="url(#polycleaner)" fill="#c5885b" d="M377 307l17-12-26-5z"/><path transform="matrix(-.99652 0 0 .99795 564.04 -80.526)" filter="url(#polycleaner)" fill="#d6895d" d="M354 312l-9-32-38 29z"/><path transform="matrix(-.99652 0 0 .99795 564.04 -80.526)" filter="url(#polycleaner)" fill="#eaa267" d="M345 280l-23-8-15 37z"/><path transform="matrix(-.99652 0 0 .99795 564.04 -80.526)" filter="url(#polycleaner)" fill="#f7c684" d="M394 295l22-12-16-7z"/><path transform="matrix(-.99652 0 0 .99795 564.04 -80.526)" filter="url(#polycleaner)" fill="#4f2150" d="M427 295l-11-12 14-7z"/><path transform="matrix(-.99652 0 0 .99795 564.04 -80.526)" filter="url(#polycleaner)" fill="#442551" d="M455 268l-25 8 11 6z"/><path transform="matrix(-.99652 0 0 .99795 564.04 -80.526)" filter="url(#polycleaner)" fill="#905952" d="M430 276l-21-8h20z"/><path transform="matrix(-.99652 0 0 .99795 564.04 -80.526)" filter="url(#polycleaner)" fill="#3f1c53" d="M409 268l-9 8 16 7 14-7z"/><path transform="matrix(-.99652 0 0 .99795 564.04 -80.526)" filter="url(#polycleaner)" fill="#f9bd74" d="M394 295l6-19-32 14z"/><path transform="matrix(-.99652 0 0 .99795 564.04 -80.526)" filter="url(#polycleaner)" fill="#be7356" d="M400 276l-21-10-11 24z"/><path transform="matrix(-.99652 0 0 .99795 564.04 -80.526)" filter="url(#polycleaner)" fill="#c67b5c" d="M322 272l-50 29 35 8z"/><path transform="matrix(-.99652 0 0 .99795 564.04 -80.526)" filter="url(#polycleaner)" fill="#c68464" d="M322 272l-23-8-27 37z"/><path transform="matrix(-.99652 0 0 .99795 564.04 -80.526)" filter="url(#polycleaner)" fill="#744855" d="M455 268h-26l1 8z"/><path transform="matrix(-.99652 0 0 .99795 564.04 -80.526)" filter="url(#polycleaner)" fill="#98525a" d="M379 266l-34 14 23 10z"/><path transform="matrix(-.99652 0 0 .99795 564.04 -80.526)" filter="url(#polycleaner)" fill="#b1625d" d="M379 266l-28-13-6 27zM368 290l-14 22-9-32z"/><path transform="matrix(-.99652 0 0 .99795 564.04 -80.526)" filter="url(#polycleaner)" fill="#d89f6a" d="M455 268l-11-14-15 14z"/><path transform="matrix(-.99652 0 0 .99795 564.04 -80.526)" filter="url(#polycleaner)" fill="#c47f55" d="M455 268l2-20-13 6z"/><path transform="matrix(-.99652 0 0 .99795 564.04 -80.526)" filter="url(#polycleaner)" fill="#bd7859" d="M444 254l-21-19-9 19z"/><path transform="matrix(-.99652 0 0 .99795 564.04 -80.526)" filter="url(#polycleaner)" fill="#eaaf77" d="M348 223l17 3-14 27z"/><path transform="matrix(-.99652 0 0 .99795 564.04 -80.526)" filter="url(#polycleaner)" fill="#e09b72" d="M365 226l-4-10-13 7z"/><path transform="matrix(-.99652 0 0 .99795 564.04 -80.526)" filter="url(#polycleaner)" fill="#743854" d="M406 445l-15-25-24 10z"/><path transform="matrix(-.99652 0 0 .99795 564.04 -80.526)" filter="url(#polycleaner)" fill="#8e4c50" d="M391 420l-23-11-1 21z"/><path transform="matrix(-.99652 0 0 .99795 564.04 -80.526)" filter="url(#polycleaner)" fill="#6d3a3d" d="M391 420l7-18-30 7z"/><path transform="matrix(-.99652 0 0 .99795 564.04 -80.526)" filter="url(#polycleaner)" fill="#a5585d" d="M391 420l41 6-34-24z"/><path transform="matrix(-.99652 0 0 .99795 564.04 -80.526)" filter="url(#polycleaner)" fill="#87484c" d="M398 402l-17-41-13 48z"/><path transform="matrix(-.99652 0 0 .99795 564.04 -80.526)" filter="url(#polycleaner)" fill="#571c4f" d="M398 402l4-48-21 7z"/><path transform="matrix(-.99652 0 0 .99795 564.04 -80.526)" filter="url(#polycleaner)" fill="#6b3b51" d="M383 331l-2 30 21-7zM405 315l-29 7 7 9z"/><path transform="matrix(-.99652 0 0 .99795 564.04 -80.526)" filter="url(#polycleaner)" fill="#7e3854" d="M376 322l-11-11 12-4z"/><path transform="matrix(-.99652 0 0 .99795 564.04 -80.526)" filter="url(#polycleaner)" fill="#e9a461" d="M297 376l67-17-10-47z"/><path transform="matrix(-.99652 0 0 .99795 564.04 -80.526)" filter="url(#polycleaner)" fill="#571c4f" d="M383 331l-7-9-11-11-11 1 10 47 17 2z"/><path transform="matrix(-.99652 0 0 .99795 564.04 -80.526)" filter="url(#polycleaner)" fill="#8d4956" d="M365 311l3-21-14 22z"/><path transform="matrix(-.99652 0 0 .99795 564.04 -80.526)" filter="url(#polycleaner)" fill="#f2b974" d="M468 284l-13-16-14 14z"/><path transform="matrix(-.99652 0 0 .99795 564.04 -80.526)" filter="url(#polycleaner)" fill="#c8885c" d="M444 254h-30l15 14z"/><path transform="matrix(-.99652 0 0 .99795 564.04 -80.526)" filter="url(#polycleaner)" fill="#cd9566" d="M429 268h-20l5-14z"/><path transform="matrix(-.99652 0 0 .99795 564.04 -80.526)" filter="url(#polycleaner)" fill="#ac7068" d="M379 245v21l-28-13z"/><path transform="matrix(-.99652 0 0 .99795 564.04 -80.526)" filter="url(#polycleaner)" fill="#6c2e57" d="M409 268l-15-3 6 11z"/><path transform="matrix(-.99652 0 0 .99795 564.04 -80.526)" filter="url(#polycleaner)" fill="#9d5c58" d="M414 254l-35-9v21l21 10-6-11 15 3z"/><path transform="matrix(-.99652 0 0 .99795 564.04 -80.526)" filter="url(#polycleaner)" fill="#cd9971" d="M379 245l4-19h-18z"/><path transform="matrix(-.99652 0 0 .99795 564.04 -80.526)" filter="url(#polycleaner)" fill="#b26d5d" d="M420 213l3 22-32-11z"/><path transform="matrix(-.99652 0 0 .99795 564.04 -80.526)" filter="url(#polycleaner)" fill="#91535d" d="M414 254l-35-9 4-19 8-2 32 11z"/><path transform="matrix(-.99652 0 0 .99795 564.04 -80.526)" filter="url(#polycleaner)" fill="#b0746a" d="M391 224l-12-6 4 8z"/><path transform="matrix(-.99652 0 0 .99795 564.04 -80.526)" filter="url(#polycleaner)" fill="#f0bd8a" d="M383 226l-16-8h12z"/><path transform="matrix(-.99652 0 0 .99795 564.04 -80.526)" filter="url(#polycleaner)" fill="#f6da9b" d="M383 226l-16-8-2 8z"/><path transform="matrix(-.99652 0 0 .99795 564.04 -80.526)" filter="url(#polycleaner)" fill="#f9f0b8" d="M367 218l-6-2 4 10z"/><path transform="matrix(-.99652 0 0 .99795 564.04 -80.526)" filter="url(#polycleaner)" fill="#9e5663" d="M372 210l-11 6 6 2z"/><path transform="matrix(-.99652 0 0 .99795 564.04 -80.526)" filter="url(#polycleaner)" fill="#cc8a6a" d="M420 213l-29 11-11-18z"/><path transform="matrix(-.99652 0 0 .99795 564.04 -80.526)" filter="url(#polycleaner)" fill="#da9172" d="M379 218l-7-8-5 8z"/><path transform="matrix(-.99652 0 0 .99795 564.04 -80.526)" filter="url(#polycleaner)" fill="#7b3962" d="M372 210l8-4 11 18-12-6z"/><path transform="matrix(-.99652 0 0 .99795 564.04 -80.526)" filter="url(#polycleaner)" fill="#d49a5a" d="M468 284l6-24-19 8z"/><path transform="matrix(-.99652 0 0 .99795 564.04 -80.526)" filter="url(#polycleaner)" fill="#c87a4c" d="M498 273l-30 11 32-39z"/><path transform="matrix(-.99652 0 0 .99795 564.04 -80.526)" filter="url(#polycleaner)" fill="#da8951" d="M487 235l13 10-10-32z"/><path transform="matrix(-.99652 0 0 .99795 564.04 -80.526)" filter="url(#polycleaner)" fill="#f2af67" d="M490 213l-3 22-19-15z"/><path transform="matrix(-.99652 0 0 .99795 564.04 -80.526)" filter="url(#polycleaner)" fill="#c78052" d="M474 260l-2-29-17 37z"/><path transform="matrix(-.99652 0 0 .99795 564.04 -80.526)" filter="url(#polycleaner)" fill="#eca45f" d="M474 260l-6 24 32-39-13-10-19-15-8 6 12 5z"/><path transform="matrix(-.99652 0 0 .99795 564.04 -80.526)" filter="url(#polycleaner)" fill="#bb7e5a" d="M440 210l9-2-5 12z"/><path transform="matrix(-.99652 0 0 .99795 564.04 -80.526)" filter="url(#polycleaner)" fill="#f7f0ae" d="M460 226l1-9 7 3z"/><path transform="matrix(-.99652 0 0 .99795 564.04 -80.526)" filter="url(#polycleaner)" fill="#ac5d58" d="M464 208h-15l-18-20z"/><path transform="matrix(-.99652 0 0 .99795 564.04 -80.526)" filter="url(#polycleaner)" fill="#4c2055" d="M464 208l4 12-7-3-10 4z"/><path transform="matrix(-.99652 0 0 .99795 564.04 -80.526)" filter="url(#polycleaner)" fill="#e9b674" d="M472 231l-15 17-2 20z"/><path transform="matrix(-.99652 0 0 .99795 564.04 -80.526)" filter="url(#polycleaner)" fill="#f5d997" d="M461 217l-10 4 9 5z"/><path transform="matrix(-.99652 0 0 .99795 564.04 -80.526)" filter="url(#polycleaner)" fill="#d9a46e" d="M440 210l4 10-24-7z"/><path transform="matrix(-.99652 0 0 .99795 564.04 -80.526)" filter="url(#polycleaner)" fill="#f7c07b" d="M457 248l15-17-12-5-9-5-7-1z"/><path transform="matrix(-.99652 0 0 .99795 564.04 -80.526)" filter="url(#polycleaner)" fill="#d89b65" d="M444 254l13-6-13-28-21 15zM456 216l-10-1 5 6z"/><path transform="matrix(-.99652 0 0 .99795 564.04 -80.526)" filter="url(#polycleaner)" fill="#682b58" d="M451 221l-7-1 2-5zM464 208l-8 8-10-1 3-7z"/></svg>