<svg xmlns:rdf="http://www.w3.org/1999/02/22-rdf-syntax-ns#" xmlns="http://www.w3.org/2000/svg" xmlns:osb="http://www.openswatchbook.org/uri/2009/osb" viewBox="0 0 400 400" version="1.1" enable-background="new" xmlns:cc="http://creativecommons.org/ns#" xmlns:xlink="http://www.w3.org/1999/xlink" xmlns:dc="http://purl.org/dc/elements/1.1/">
 <defs>
  <linearGradient id="logo" osb:paint="solid">
   <stop style="stop-color:#ffd700" offset="0"/>
  </linearGradient>
  <linearGradient id="eye" osb:paint="solid">
   <stop style="stop-color:#008080" offset="0"/>
  </linearGradient>
  <linearGradient id="white" osb:paint="solid">
   <stop style="stop-color:#f2f2f2" offset="0"/>
  </linearGradient>
  <linearGradient id="black" gradientTransform="matrix(2 0 0 3.7804 180.01 -324.87)" osb:paint="solid">
   <stop style="stop-color:#222222" offset="0"/>
  </linearGradient>
  <linearGradient id="linearGradient4701" y2="152.22" xlink:href="#black" gradientUnits="userSpaceOnUse" x2="70.788" y1="152.22" x1="50.788"/>
  <linearGradient id="linearGradient4703" y2="185.04" xlink:href="#white" gradientUnits="userSpaceOnUse" x2="119.05" y1="185.04" x1="99.052"/>
  <linearGradient id="linearGradient4299" y2="185.04" xlink:href="#white" gradientUnits="userSpaceOnUse" x2="119.05" gradientTransform="translate(60)" y1="185.04" x1="99.052"/>
  <linearGradient id="linearGradient4701-0" y2="152.22" xlink:href="#black" gradientUnits="userSpaceOnUse" x2="70.788" y1="152.22" x1="50.788"/>
  <linearGradient id="linearGradient4547" y2="90" xlink:href="#black" gradientUnits="userSpaceOnUse" x2="360" y1="90" x1="40"/>
  <linearGradient id="linearGradient4631" y2="378.36" xlink:href="#logo" gradientUnits="userSpaceOnUse" x2="264.53" y1="378.36" x1="249.53"/>
  <linearGradient id="linearGradient4690" y2="378.36" xlink:href="#logo" gradientUnits="userSpaceOnUse" x2="264.53" gradientTransform="matrix(.66667 0 0 .66667 74.333 136.33)" y1="378.36" x1="249.53"/>
  <linearGradient id="linearGradient4694" y2="378.36" xlink:href="#logo" gradientUnits="userSpaceOnUse" x2="264.53" gradientTransform="matrix(.66667 0 0 .66667 97.333 136.33)" y1="378.36" x1="249.53"/>
  <linearGradient id="linearGradient4735" y2="185.43" gradientUnits="userSpaceOnUse" x2="195.52" gradientTransform="translate(3.5696e-7 .000022375)" y1="185.43" x1="44.482">
   <stop style="stop-color:#edc8af" offset="0"/>
  </linearGradient>
  <linearGradient id="linearGradient4246" y2="270" gradientUnits="userSpaceOnUse" x2="340" y1="270" x1="60">
   <stop style="stop-color:#20b2aa" offset="0"/>
  </linearGradient>
  <linearGradient id="linearGradient4264" y2="170" xlink:href="#eye" gradientUnits="userSpaceOnUse" x2="120" y1="170" x1="100"/>
  <linearGradient id="linearGradient4266" y2="170" xlink:href="#eye" gradientUnits="userSpaceOnUse" x2="280" y1="170" x1="260"/>
  <linearGradient id="linearGradient4293" y2="360" gradientUnits="userSpaceOnUse" x2="360" y1="360" x1="40">
   <stop style="stop-color:#4169e1" offset="0"/>
  </linearGradient>
 </defs>
 <g>
  <rect style="fill:none;color-rendering:auto;color:#000000;isolation:auto;mix-blend-mode:normal;shape-rendering:auto;solid-color:#000000;image-rendering:auto;enable-background:accumulate" height="400" width="400" y="0" x="0"/>
  <rect style="fill:#ffffff;color-rendering:auto;color:#000000;isolation:auto;mix-blend-mode:normal;fill-rule:evenodd;shape-rendering:auto;solid-color:#000000;image-rendering:auto;enable-background:accumulate" height="21.689" width="20.622" y="181.33" x="98.133"/>
 </g>
 <g>
  <path style="fill:url(#linearGradient4735);color-rendering:auto;color:#000000;isolation:auto;mix-blend-mode:normal;fill-rule:evenodd;shape-rendering:auto;solid-color:#000000;image-rendering:auto;enable-background:accumulate" d="m100 40v20h-20v20h-20v60h-20v60h20l.05469 60.074 19.945-.07v20h80v40h-100v20h-20v60h320v-60h-20v-20h-100v-40h80v-20l19.945.0742.06-60.07h20v-60h-20v-60h-20v-20h-20v-20z"/>
 </g>
 <g>
  <g>
   <path style="fill:url(#linearGradient4701);color-rendering:auto;color:#000000;isolation:auto;mix-blend-mode:normal;fill-rule:evenodd;shape-rendering:auto;solid-color:#000000;image-rendering:auto;enable-background:accumulate" d="m80 140v20h40v20h20v-20h20v-20h-80z"/>
   <path style="fill:url(#linearGradient4703);color-rendering:auto;color:#000000;isolation:auto;mix-blend-mode:normal;fill-rule:evenodd;shape-rendering:auto;solid-color:#000000;image-rendering:auto;enable-background:accumulate" d="m80 160h20v20h-20z"/>
   <path d="m140 160h20v20h-20z" style="fill:url(#linearGradient4299);color-rendering:auto;color:#000000;isolation:auto;mix-blend-mode:normal;fill-rule:evenodd;shape-rendering:auto;solid-color:#000000;image-rendering:auto;enable-background:accumulate"/>
   <path style="fill:url(#linearGradient4264);color-rendering:auto;color:#000000;isolation:auto;mix-blend-mode:normal;fill-rule:evenodd;shape-rendering:auto;solid-color:#000000;image-rendering:auto;enable-background:accumulate" d="m100 160h20v20h-20z"/>
  </g>
  <g>
   <path style="fill:url(#linearGradient4701-0);color-rendering:auto;color:#000000;isolation:auto;mix-blend-mode:normal;fill-rule:evenodd;shape-rendering:auto;solid-color:#000000;image-rendering:auto;enable-background:accumulate" d="m240 140v20h40v20h20v-20h20v-20h-80z"/>
   <path style="color-rendering:auto;color:#000000;isolation:auto;mix-blend-mode:normal;fill-rule:evenodd;shape-rendering:auto;solid-color:#000000;image-rendering:auto;enable-background:accumulate;fill:url(#linearGradient4703)" d="m240 160h20v20h-20z"/>
   <path d="m300 160h20v20h-20z" style="color-rendering:auto;color:#000000;isolation:auto;mix-blend-mode:normal;fill-rule:evenodd;shape-rendering:auto;solid-color:#000000;image-rendering:auto;enable-background:accumulate;fill:url(#linearGradient4299)"/>
   <path style="fill:url(#linearGradient4266);color-rendering:auto;color:#000000;isolation:auto;mix-blend-mode:normal;fill-rule:evenodd;shape-rendering:auto;solid-color:#000000;image-rendering:auto;enable-background:accumulate" d="m260 160h20v20h-20z"/>
  </g>
 </g>
 <g>
  <path style="fill:url(#linearGradient4547);color-rendering:auto;color:#000000;isolation:auto;mix-blend-mode:normal;fill-rule:evenodd;shape-rendering:auto;solid-color:#000000;image-rendering:auto;enable-background:accumulate" d="m100 40v20h20v20h20v20h20v10h80v-10h20v-20h20v-20h20v-20h-200zm200 20v20h20v-20h-20zm20 20v20h20v-20h-20zm20 20v20 20h20v-20-20h-20zm-240-40h-20v20h20v-20zm-20 20h-20v20h20v-20zm-20 20h-20v20 20h20v-20-20z"/>
 </g>
 <g>
  <path style="fill:url(#linearGradient4293);color-rendering:auto;color:#000000;isolation:auto;mix-blend-mode:normal;fill-rule:evenodd;shape-rendering:auto;solid-color:#000000;image-rendering:auto;enable-background:accumulate" d="m60 320v20h-20v60h320v-60h-20v-20h-80v20h-20v20h-20v20h-40v-20h-20v-20h-20v-20z"/>
  <path style="fill:url(#black);color-rendering:auto;color:#000000;isolation:auto;mix-blend-mode:normal;fill-rule:evenodd;shape-rendering:auto;solid-color:#000000;image-rendering:auto;enable-background:accumulate" d="m140 320v20h20v-20zm20 20v20h20v-20zm20 20v20h40v-20h-40zm40 0h20v-20h-20zm20-20h20v-20h-20z"/>
  <rect style="fill:#222222;color-rendering:auto;fill-opacity:.49020;color:#000000;isolation:auto;mix-blend-mode:normal;fill-rule:evenodd;shape-rendering:auto;solid-color:#000000;image-rendering:auto;enable-background:accumulate" height="40" width="20" y="360" x="90"/>
  <rect style="fill:#222222;color-rendering:auto;fill-opacity:.49020;color:#000000;isolation:auto;mix-blend-mode:normal;fill-rule:evenodd;shape-rendering:auto;solid-color:#000000;image-rendering:auto;enable-background:accumulate" height="40" width="20" y="360" x="290"/>
  <g>
   <g>
    <rect style="fill:url(#linearGradient4631);color-rendering:auto;color:#000000;isolation:auto;mix-blend-mode:normal;fill-rule:evenodd;shape-rendering:auto;solid-color:#000000;image-rendering:auto;enable-background:accumulate" height="15" width="15" y="370" x="250"/>
    <rect style="fill:url(#linearGradient4690);color-rendering:auto;color:#000000;isolation:auto;mix-blend-mode:normal;fill-rule:evenodd;shape-rendering:auto;solid-color:#000000;image-rendering:auto;enable-background:accumulate" height="10" width="10" y="383" x="241"/>
    <rect style="fill:url(#linearGradient4694);color-rendering:auto;color:#000000;isolation:auto;mix-blend-mode:normal;fill-rule:evenodd;shape-rendering:auto;solid-color:#000000;image-rendering:auto;enable-background:accumulate" height="10" width="10" y="383" x="264"/>
    <rect style="opacity:0.42;fill:none" height="10" width="10" y="383.02" x="264"/>
    <rect style="fill-opacity:0" ry="0" height="10" width="10" y="383.02" x="264"/>
    <text style="font-size:1.5625px;font-family:&apos;Roboto Condensed&apos;;letter-spacing:.1px;word-spacing:0px;font-weight:bold;line-height:95.99999785%;fill:#483d8b" y="390.03406" x="266.40518" xml:space="preserve"><tspan y="390.03406" x="266.40518" style="font-size:5.45px;font-family:&apos;Roboto Condensed&apos;;letter-spacing:.1px;font-weight:bold;line-height:95.99999785%;fill:#483d8b">iN </tspan></text>
   </g>
  </g>
 </g>
 <g>
  <g>
   <path style="fill:url(#linearGradient4246);color-rendering:auto;color:#000000;isolation:auto;mix-blend-mode:normal;fill-rule:evenodd;shape-rendering:auto;solid-color:#000000;image-rendering:auto;enable-background:accumulate" d="m60 200v40 20h20v20h20v20h20v20h20v20h120v-20h20v-20h20v-20h20v-20h20v-20-40h-20v40h-60v-20h-120v20h-60v-40h-20z"/>
   <rect style="fill:url(#white);color-rendering:auto;color:#000000;isolation:auto;mix-blend-mode:normal;fill-rule:evenodd;shape-rendering:auto;solid-color:#000000;image-rendering:auto;enable-background:accumulate" height="20" width="80" y="240" x="160"/>
  </g>
 </g>
</svg>
