<?xml version="1.0" encoding="UTF-8" standalone="no"?>
<svg xmlns:rdf="http://www.w3.org/1999/02/22-rdf-syntax-ns#" xmlns="http://www.w3.org/2000/svg" version="1.1" xmlns:cc="http://creativecommons.org/ns#" xmlns:xlink="http://www.w3.org/1999/xlink" viewBox="0 0 400 400" xmlns:dc="http://purl.org/dc/elements/1.1/">
 <defs>
  <linearGradient id="k" y2="90" gradientUnits="userSpaceOnUse" y1="90" gradientTransform="translate(0 -.004)" x2="360" x1="40">
   <stop stop-color="#222" offset="0"/>
  </linearGradient>
  <linearGradient id="e" y2="185.43" gradientUnits="userSpaceOnUse" x2="195.52" gradientTransform="translate(0 -.004)" y1="185.43" x1="44.482">
   <stop stop-color="#edc8af" offset="0"/>
  </linearGradient>
 </defs>
 <g>
  <path solid-color="#000000" style="isolation:auto;mix-blend-mode:normal" d="m0 .004h400v400h-400z" fill="none"/>
  <path style="isolation:auto;mix-blend-mode:normal" d="m98.133 181.33h20.622v21.69h-20.627z" fill-rule="evenodd" solid-color="#000000" fill="#fff"/>
 </g>
 <g>
  <g>
   <path style="fill-rule:evenodd;isolation:auto;mix-blend-mode:normal;fill:#edc8af" d="m100 40v20h-20v20h-20v60h-20v60h20l.055 60.074 19.945-.07v20h80v40h-100v20h-20v60h320v-60h-20v-20h-100v-40h80v-20l19.945.074.06-60.07h20v-60h-20v-60h-20v-20h-20v-20z" fill-rule="evenodd" transform="translate(0 .004)" solid-color="#000000" fill="url(#e)"/>
   <g>
    <path style="fill-rule:evenodd;color:#000000;isolation:auto;mix-blend-mode:normal;solid-color:#000000;fill:#222222" d="m80 140v20h40v20h20v-20h20v-20h-80z"/>
    <path style="fill-rule:evenodd;color:#000000;isolation:auto;mix-blend-mode:normal;solid-color:#000000;fill:#f2f2f2" d="m80 160h20v20h-20z"/>
    <path style="fill-rule:evenodd;color:#000000;isolation:auto;mix-blend-mode:normal;solid-color:#000000;fill:#f2f2f2" d="m140 160h20v20h-20z"/>
    <path style="fill-rule:evenodd;color:#000000;isolation:auto;mix-blend-mode:normal;solid-color:#000000;fill:#008080" d="m100 160h20v20h-20z"/>
   </g>
   <path style="isolation:auto;mix-blend-mode:normal;fill:#222222" d="m100 40v20h20v20h20v20h20v10h80v-10h20v-20h20v-20h20v-20h-200zm200 20v20h20v-20h-20zm20 20v20h20v-20h-20zm20 20v40h20v-40h-20zm-240-40h-20v20h20v-20zm-20 20h-20v20h20v-20zm-20 20h-20v40h20v-40z" fill-rule="evenodd" transform="translate(0 .004)" solid-color="#000000" fill="url(#k)"/>
   <g transform="translate(159.25)">
    <path style="color:#000000;isolation:auto;mix-blend-mode:normal;fill-rule:evenodd;solid-color:#000000;fill:#222222" d="m80 140v20h40v20h20v-20h20v-20h-80z"/>
    <path style="color:#000000;isolation:auto;mix-blend-mode:normal;fill-rule:evenodd;solid-color:#000000;fill:#f2f2f2" d="m80 160h20v20h-20z"/>
    <path style="color:#000000;isolation:auto;mix-blend-mode:normal;fill-rule:evenodd;solid-color:#000000;fill:#f2f2f2" d="m140 160h20v20h-20z"/>
    <path style="color:#000000;isolation:auto;mix-blend-mode:normal;fill-rule:evenodd;solid-color:#000000;fill:#008080" d="m100 160h20v20h-20z"/>
   </g>
  </g>
  <g>
   <path style="fill-rule:evenodd;color:#000000;isolation:auto;mix-blend-mode:normal;solid-color:#000000;fill:#4169e1" d="m60 320v20h-20v60h320v-60h-20v-20h-80v20h-20v20h-20v20h-40v-20h-20v-20h-20v-20z"/>
   <g>
    <path d="m90 360h20v40h-20zm200 0h20v40h-20z" style="fill-opacity:0.49;color:#000000;isolation:auto;mix-blend-mode:normal;fill-rule:evenodd;solid-color:#000000;fill:#222222"/>
   </g>
   <path style="fill-rule:evenodd;color:#000000;isolation:auto;mix-blend-mode:normal;solid-color:#000000;fill:#222222" d="m140 320v20h20v-20zm20 20v20h20v-20zm20 20v20h40v-20h-40zm40 0h20v-20h-20zm20-20h20v-20h-20z"/>
  </g>
  <path style="opacity:0.42;fill:none" d="m264 383.02h10v10h-10z"/>
  <rect style="fill:none" ry="0" height="10" width="10" y="383.02" x="264"/>
  <g>
   <g>
    <path style="fill-rule:evenodd;color:#000000;isolation:auto;mix-blend-mode:normal;solid-color:#000000;fill:#ffd700" d="m250 370h15v15h-15z"/>
    <path style="fill-rule:evenodd;color:#000000;isolation:auto;mix-blend-mode:normal;solid-color:#000000;fill:#ffd700" d="m241 383h10v10h-10z"/>
    <path style="fill-rule:evenodd;color:#000000;isolation:auto;mix-blend-mode:normal;solid-color:#000000;fill:#ffd700" d="m264 383h10v10h-10z"/>
   </g>
   <g style="fill:#483d8b">
    <path d="m267.47 390.04h-.75576v-2.8793h.75576v2.8793zm-.79035-3.6245q0-.17563.11176-.2874.11177-.11177.29805-.11177t.29805.11177q.11176.11177.11176.2874 0 .17298-.11176.2874-.10911.11443-.29805.11443t-.30071-.11443q-.1091-.11442-.1091-.2874z"/>
    <path d="m270.9 390.04h-.78237l-1.1443-2.5414v2.5414h-.78237v-3.8746h.78237l1.147 2.544v-2.544h.77971v3.8746z"/>
   </g>
  </g>
  <path style="fill-rule:evenodd;color:#000000;isolation:auto;mix-blend-mode:normal;solid-color:#000000;fill:#20b2aa" d="m60 200v60h20v20h20v20h20v20h20v20h120v-20h20v-20h20v-20h20v-20h20v-60h-20v40h-60v-20h-120v20h-60v-40h-20z"/>
  <path style="fill-rule:evenodd;color:#000000;isolation:auto;mix-blend-mode:normal;solid-color:#000000;fill:#f2f2f2" d="m160 240h80v20h-80z"/>
 </g>
</svg>
