<svg xmlns:rdf="http://www.w3.org/1999/02/22-rdf-syntax-ns#" xmlns="http://www.w3.org/2000/svg" version="1.1" xml:space="preserve" height="269" width="400" enable-background="new 0 323.8 2739 407.4" y="0px" x="0px" xmlns:cc="http://creativecommons.org/ns#" xmlns:dc="http://purl.org/dc/elements/1.1/" viewBox="0 323.8 400 269.00001"><g transform="matrix(.92081 0 0 .91903 0 26.218)"><path style="fill:#000000" d="m0 464.4c0-45.3 15.5-85.5 47.1-121.1 11.5-13.2 20.7-19.5 27-19.5 2.3 0 4.6.6 6.3 2.3s2.9 3.4 2.9 5.7c0 3.4-4 8.6-12.1 16.6-32.7 31.6-49.4 70.6-49.4 117.1 0 51.6 17.2 93.5 51.1 125.7 6.9 6.3 10.3 11.5 10.3 15.5 0 2.3-1.1 4.6-2.9 6.3-1.7 1.7-4 2.9-6.3 2.9-8 0-18.9-9.2-33.3-27.5-27.5-33.9-40.7-75.2-40.7-124z"/><path style="fill:#000000" d="m434.4 475.9c0 45.3-15.5 85.5-47.1 121.1-11.5 13.2-20.7 19.5-27 19.5-2.3 0-4.6-.6-6.3-2.3s-2.9-4-2.9-6.3c0-3.4 4-8.6 12.1-16.1 32.7-31.6 49.4-70.6 49.4-117.1 0-51.6-17.2-93.5-51.1-125.7-6.9-6.3-10.3-11.5-10.3-15.5 0-2.3 1.1-4.6 2.9-6.3 1.7-1.7 4-2.9 6.3-2.9 7.5 0 18.9 9.2 33.3 27.5 26.9 34.5 40.7 75.9 40.7 124.1z"/><g style="fill:#000000" transform="translate(-2246.4,-59.8)"><line style="fill:#000000" y2="636.7" x2="2567.8" y1="636.7" x1="2368.6"/><path style="fill:#000000" d="m2567.2 648.7h-199.1c-6.3 0-12.1-5.2-12.1-12.1s5.2-12.1 12.1-12.1h199.1c6.3 0 12.1 5.2 12.1 12.1-.1 7-5.2 12.1-12.1 12.1z"/></g><path style="fill:#000000" d="m282.6 416.1c-3.2-10.8-8.3-21-16.1-29-2.1-2.1-4.3-4.1-6.5-6.1-1.7-1.6-6-4.1-6.9-6.2 4.6 10.7 9.1 21.8 5.7 33.6-1.6 5.3-7.4 18.1-15.1 14.8-7.2-3.1-6.4-18.3-7-24.4-1.5-15.1-4.9-30.1-12.9-43.1-4.4-7.1-10.1-13.4-17.3-17.7-9.5-5.6-19.3-9.4-30.1-5.3 2.4-.9 8.6 6.3 9.8 7.7 3.8 4.5 6.9 9.8 8.6 15.4 3.4 11.4.4 24.5-3.6 35.4-8.3 22.6-22.1 42.9-28.7 66.1-2.3 8.1-3.9 16.4-4.3 24.8-1.4 26.5 12.4 50.8 34.2 65.6 4.9 3.4 13.7 7.6 20 5.4-18.3-9.8-24.4-17.8-27.2-29.3-6.6-26.7 18.4-43.7 29.2-64.8 2.9-5.6 5-11.8 4.2-18.2-.3-2.4-3-14.1-6.6-13.5 10.9-1.7 18 5.5 21.7 14.9 3.9 10 6.3 20.2 4.5 30.8-.6 3.5-3.2 14.6 1.9 15.3 7.1 1 13.1-8.4 11.7-17.4-.7-4.2-1.5-10.6-1.5-10.6 7.5 9.2 10.9 18.5 12 28.6 2 18.1-5.8 42-20.3 56.8 6.1-6.2 13.9-10.5 19.8-17.2 6-6.8 10.6-14.6 14.2-23 8.1-18.6 12.8-39.6 11.4-59.9-.5-9.7-1.9-19.9-4.8-29.5z"/></g></svg>
