<svg xmlns:rdf="http://www.w3.org/1999/02/22-rdf-syntax-ns#" xmlns="http://www.w3.org/2000/svg" xml:space="preserve" version="1.1" xmlns:cc="http://creativecommons.org/ns#" xmlns:dc="http://purl.org/dc/elements/1.1/" viewBox="0 0 45 41.25"><defs><clipPath id="clipPath22"><path d="m0 38h38v-38h-38v38z"/></clipPath></defs><g transform="matrix(-1,0,0,1,45,0)"><g transform="matrix(1.25,0,0,-1.25,-1.25,42.5)"><path d="m37 3h-36v-2h36v2z" style="fill:#939598"/><path d="m36 5h-29v5h29v-5z" style="fill:#231f20"/><g><g clip-path="url(#clipPath22)"><g transform="translate(4.999,5)"><path d="m0 0c0 1.656 1.343 3 3 3s3-1.344 3-3-1.343-3-3-3-3 1.344-3 3" style="fill:#58595b"/></g><g transform="translate(10.999,5)"><path d="m0 0c0 1.657 1.343 3 3 3s3-1.343 3-3-1.343-3-3-3-3 1.343-3 3" style="fill:#58595b"/></g><g transform="translate(6.499,5)"><path d="m0 0c0 .829.672 1.5 1.5 1.5s1.5-.671 1.5-1.5-.672-1.5-1.5-1.5-1.5.671-1.5 1.5" style="fill:#a0041e"/></g><g transform="translate(12.499,5)"><path d="m0 0c0 .83.671 1.5 1.5 1.5s1.5-.67 1.5-1.5-.671-1.5-1.5-1.5-1.5.67-1.5 1.5" style="fill:#a0041e"/></g><g transform="translate(6,4)"><path d="m0 0h-4c-1 0-1.5.5 0 2l4 4c1 1 2 2.001 2 0v-4c0-2-.001-2-2-2" style="fill:#dd2e44"/></g><g transform="translate(8.9995,17)"><path d="m0 0c0-3.313-1.343-6-3-6s-3 2.687-3 6c0 3.314 1.343 6 3 6s3-2.686 3-6" style="fill:#231f20"/></g><g transform="translate(12,22)"><path d="m0 0h-4l-2 8h8l-2-8z" style="fill:#6d6e71"/></g><g transform="translate(27,12)"><path d="m0 0c0-1.104-.896-2-2-2h-18c-1.104 0-2 .896-2 2v10c0 1.104.896 2 2 2h18c1.104 0 2-.896 2-2v-10z" style="fill:#414042"/></g><g transform="translate(14,11)"><path d="m0 0c0-.553-.448-1-1-1s-1 .447-1 1v13c0 .552.448 1 1 1s1-.448 1-1v-13z" style="fill:#c1694f"/></g><g transform="translate(20,11)"><path d="m0 0c0-.553-.447-1-1-1s-1 .447-1 1v13c0 .552.447 1 1 1s1-.448 1-1v-13z" style="fill:#c1694f"/></g><g transform="translate(37,11)"><path d="m0 0c0-.553-.447-1-1-1h-28c-.552 0-1 .447-1 1s.448 1 1 1h28c.553 0 1-.447 1-1" style="fill:#808285"/></g><g transform="translate(26.999,6)"><path d="m0 0c0 2.209 1.791 4 4 4s4-1.791 4-4-1.791-4-4-4-4 1.791-4 4" style="fill:#58595b"/></g><g transform="translate(18.999,6)"><path d="m0 0c0 2.209 1.791 4 4 4s4-1.791 4-4-1.791-4-4-4-4 1.791-4 4" style="fill:#58595b"/></g><g transform="translate(28.999,6)"><path d="m0 0c0 1.104.896 2 2 2s2-.896 2-2-.896-2-2-2-2 .896-2 2" style="fill:#a0041e"/></g><g transform="translate(20.999,6)"><path d="m0 0c0 1.104.896 2 2 2s2-.896 2-2-.896-2-2-2-2 .896-2 2" style="fill:#a0041e"/></g><g transform="translate(13,34)"><path d="m0 0h-6c-.552 0-1-.448-1-1v-3h8v3c0 .552-.448 1-1 1" style="fill:#414042"/></g><path d="m36 30h-12v-18h12v18z" style="fill:#be1931"/><g transform="translate(37,31)"><path d="m0 0c0-.552-.447-1-1-1h-12c-.553 0-1 .448-1 1s.447 1 1 1h12c.553 0 1-.448 1-1" style="fill:#a0041e"/></g><path d="m34 14h-8v5h8v-5z" style="fill:#ea596e"/><g transform="translate(31,5)"><path d="m0 0h-8c-.127 0-.253.024-.371.071l-4.822 1.929h-6.807c-.552 0-1 .447-1 1s.448 1 1 1h7c.127 0 .253-.024.371-.071l4.821-1.929h7.808c.553 0 1-.447 1-1s-.447-1-1-1" style="fill:#f4900c"/></g><g transform="translate(34,27)"><path d="m0 0c0 .552-.447 1-1 1h-6c-.553 0-1-.448-1-1v-5c0-.552.447-1 1-1h6c.553 0 1 .448 1 1v5z" style="fill:#55acee"/></g></g></g></g></g></svg>
