<svg xmlns:rdf="http://www.w3.org/1999/02/22-rdf-syntax-ns#" xmlns="http://www.w3.org/2000/svg" version="1.1" xml:space="preserve" height="76" width="100" enable-background="new 0 0 100 100" y="0px" x="0px" xmlns:cc="http://creativecommons.org/ns#" xmlns:dc="http://purl.org/dc/elements/1.1/" viewBox="0 0 100.001 76.000267"><g transform="matrix(1 0 0 .99827 0 -11.609)"><path d="m97.92 41.714h-7.442c-1.006-3.912-2.918-7.583-5.57-10.891l6.658-18.334c-10.628-3.194-17.611 3.197-19.78 7.861-7.404-3.842-16.411-6.104-26.135-6.104-25.213.001-45.651 15.155-45.651 33.849 0 9.625 5.428 18.305 14.128 24.469v15.196h16.372v-7.735c4.742 1.237 9.838 1.916 15.15 1.916 4.857 0 9.534-.566 13.925-1.608v7.428h16.371v-14.356c3.584-2.361 6.661-5.134 9.101-8.22h12.519c1.021 0 2.435-.354 2.435-2.175v-19.66c0-1.153-.748-1.636-2.08-1.636zm-65.212-16.028-.957-5.392c9.731-2.064 16.724-2.526 27.94.681l-1.099 5.321c-10.418-2.978-16.647-2.569-25.884-.610z"/></g></svg>
