<svg xmlns:rdf="http://www.w3.org/1999/02/22-rdf-syntax-ns#" xmlns="http://www.w3.org/2000/svg" xmlns:osb="http://www.openswatchbook.org/uri/2009/osb" height="19.895" width="25" version="1.1" xmlns:cc="http://creativecommons.org/ns#" viewBox="0 0 25.000004 19.8949" xmlns:dc="http://purl.org/dc/elements/1.1/">
 <g transform="translate(-507.79 -399.32)">
  <path style="fill:#c300ff" d="m529.23 410.78v7.4432q0 .4032-.29462.6978-.29463.2946-.6978.2946h-5.9545v-5.9545h-3.9697v5.9545h-5.9545q-.40317 0-.6978-.2946-.29462-.2946-.29462-.6978v-7.4432q0-.015.008-.047.008-.031.008-.046l8.9163-7.3501 8.9163 7.3501q.0155.031.0155.093zm3.458-1.0699-.96141 1.1475q-.12405.1395-.32563.1705h-.0465q-.20159 0-.32564-.1085l-10.731-8.9473-10.731 8.9473q-.18608.1241-.37216.1085-.20158-.031-.32564-.1705l-.9614-1.1475q-.12405-.1551-.10855-.3644t.17057-.3334l11.149-9.2884q.49621-.4032 1.1785-.4032t1.1785.4032l3.7836 3.1633v-3.0238q0-.2171.13956-.3566.13956-.1396.35665-.1396h2.9773q.21709 0 .35665.1396.13956.1395.13956.3566v6.3267l3.3959 2.8222q.15507.1241.17058.3334.0155.2093-.10855.3644z"/>
 </g>
</svg>
