<?xml version="1.0" encoding="UTF-8" standalone="no"?>
<svg
   xmlns:dc="http://purl.org/dc/elements/1.1/"
   xmlns:cc="http://creativecommons.org/ns#"
   xmlns:rdf="http://www.w3.org/1999/02/22-rdf-syntax-ns#"
   xmlns:svg="http://www.w3.org/2000/svg"
   xmlns="http://www.w3.org/2000/svg"
   xmlns:sodipodi="http://sodipodi.sourceforge.net/DTD/sodipodi-0.dtd"
   xmlns:inkscape="http://www.inkscape.org/namespaces/inkscape"
   viewBox="0 0 410.40002 528"
   class="polylion"
   id="svg2"
   version="1.1"
   inkscape:version="0.91 r"
   sodipodi:docname="lion.svg"
   width="410.40002"
   height="528">
  <metadata
     id="metadata501">
    <rdf:RDF>
      <cc:Work
         rdf:about="">
        <dc:format>image/svg+xml</dc:format>
        <dc:type
           rdf:resource="http://purl.org/dc/dcmitype/StillImage" />
        <dc:title></dc:title>
      </cc:Work>
    </rdf:RDF>
  </metadata>
  <sodipodi:namedview
     pagecolor="#ffffff"
     bordercolor="#666666"
     borderopacity="1"
     objecttolerance="10"
     gridtolerance="10"
     guidetolerance="10"
     inkscape:pageopacity="0"
     inkscape:pageshadow="2"
     inkscape:window-width="1265"
     inkscape:window-height="643"
     id="namedview499"
     showgrid="false"
     fit-margin-top="0"
     fit-margin-left="0"
     fit-margin-right="0"
     fit-margin-bottom="0"
     inkscape:zoom="0.72"
     inkscape:cx="197.89946"
     inkscape:cy="264.92486"
     inkscape:window-x="200"
     inkscape:window-y="106"
     inkscape:window-maximized="0"
     inkscape:current-layer="svg2" />
  <defs
     id="defs4">
    <filter
       id="polycleaner"
       style="color-interpolation-filters:sRGB">
      <feComponentTransfer
         id="feComponentTransfer7">
        <feFuncA
           type="table"
           tableValues="0 0.5 1 1"
           id="feFuncA9" />
      </feComponentTransfer>
    </filter>
  </defs>
  <g
     id="g11"
     transform="matrix(-1,0,0,1,596.20002,-41)"
     style="filter:url(#polycleaner)">
    <polygon
       points="380,128 339,98 392,85 "
       style="fill:#fadfaa"
       id="polygon13" />
    <polygon
       points="380,128 412,111 392,85 "
       style="fill:#eaba8c"
       id="polygon15" />
    <polygon
       points="380,128 340,140 339,98 "
       style="fill:#fad398"
       id="polygon17" />
    <polygon
       points="340,140 309,142 339,98 "
       style="fill:#dfa387"
       id="polygon19" />
    <polygon
       points="309,142 286,133 339,98 "
       style="fill:#f9d8ad"
       id="polygon21" />
    <polygon
       points="412,111 443,101 392,85 "
       style="fill:#dbb08e"
       id="polygon23" />
    <polygon
       points="412,111 434,126 443,101 "
       style="fill:#d59f7d"
       id="polygon25" />
    <polygon
       points="434,126 475,122 443,101 "
       style="fill:#facc91"
       id="polygon27" />
    <polygon
       points="380,128 402,132 412,111 "
       style="fill:#ce8670"
       id="polygon29" />
    <polygon
       points="402,132 418,142 412,111 "
       style="fill:#bc716c"
       id="polygon31" />
    <polygon
       points="340,140 309,185 309,142 "
       style="fill:#bc716c"
       id="polygon33" />
    <polygon
       points="434,126 418,142 412,111 "
       style="fill:#d1806d"
       id="polygon35" />
    <polygon
       points="475,122 462,137 434,126 "
       style="fill:#f8dc9b"
       id="polygon37" />
    <polygon
       points="462,137 509,139 475,122 "
       style="fill:#fad295"
       id="polygon39" />
    <polygon
       points="462,137 425,155 434,126 "
       style="fill:#dc8c6b"
       id="polygon41" />
    <polygon
       points="425,155 418,142 434,126 "
       style="fill:#ec9b6c"
       id="polygon43" />
    <polygon
       points="402,132 369,156 380,128 "
       style="fill:#e49c76"
       id="polygon45" />
    <polygon
       points="369,156 340,140 380,128 "
       style="fill:#dd8d76"
       id="polygon47" />
    <polygon
       points="396,168 369,156 402,132 "
       style="fill:#db8a6f"
       id="polygon49" />
    <polygon
       points="509,139 491,171 462,137 "
       style="fill:#fbc27f"
       id="polygon51" />
    <polygon
       points="462,137 461,173 425,155 "
       style="fill:#ce7660"
       id="polygon53" />
    <polygon
       points="327,193 309,185 340,140 "
       style="fill:#bf5d76"
       id="polygon55" />
    <polygon
       points="418,142 396,168 402,132 "
       style="fill:#a8526d"
       id="polygon57" />
    <polygon
       points="309,142 292,179 286,133 "
       style="fill:#f6b78b"
       id="polygon59" />
    <polygon
       points="491,171 542,154 509,139 "
       style="fill:#f7cb8c"
       id="polygon61" />
    <polygon
       points="491,171 520,192 542,154 "
       style="fill:#d99860"
       id="polygon63" />
    <polygon
       points="410,172 425,155 418,142 "
       style="fill:#d4846d"
       id="polygon65" />
    <polygon
       points="425,155 431,188 410,172 "
       style="fill:#efa872"
       id="polygon67" />
    <polygon
       points="460,187 461,173 425,155 "
       style="fill:#954a5e"
       id="polygon69" />
    <polygon
       points="340,140 344,188 369,156 "
       style="fill:#c46374"
       id="polygon71" />
    <polygon
       points="292,179 258,161 286,133 "
       style="fill:#b95e7f"
       id="polygon73" />
    <polygon
       points="261,177 255,195 258,161 "
       style="fill:#944f8b"
       id="polygon75" />
    <polygon
       points="396,168 410,172 418,142 "
       style="fill:#b45e69"
       id="polygon77" />
    <polygon
       points="461,173 491,171 462,137 "
       style="fill:#d7835f"
       id="polygon79" />
    <polygon
       points="482,192 520,192 491,171 "
       style="fill:#bd6d56"
       id="polygon81" />
    <polygon
       points="491,171 482,192 461,173 "
       style="fill:#b05d59"
       id="polygon83" />
    <polygon
       points="482,192 460,187 461,173 "
       style="fill:#82365a"
       id="polygon85" />
    <polygon
       points="292,179 261,177 258,161 "
       style="fill:#9c4083"
       id="polygon87" />
    <polygon
       points="292,179 309,185 309,142 "
       style="fill:#b75d79"
       id="polygon89" />
    <polygon
       points="362,192 380,183 369,156 "
       style="fill:#f9cb8d"
       id="polygon91" />
    <polygon
       points="301,203 278,191 292,179 "
       style="fill:#c86e78"
       id="polygon93" />
    <polygon
       points="292,179 278,191 261,177 "
       style="fill:#ea9e86"
       id="polygon95" />
    <polygon
       points="309,185 301,203 292,179 "
       style="fill:#af5078"
       id="polygon97" />
    <polygon
       points="344,188 362,192 369,156 "
       style="fill:#d59071"
       id="polygon99" />
    <polygon
       points="425,155 460,187 431,188 "
       style="fill:#f9cd90"
       id="polygon101" />
    <polygon
       points="344,188 327,193 340,140 "
       style="fill:#ad4f74"
       id="polygon103" />
    <polygon
       points="380,206 388,187 380,183 "
       style="fill:#e0a072"
       id="polygon105" />
    <polygon
       points="322,223 342,208 344,188 "
       style="fill:#e8aa7d"
       id="polygon107" />
    <polygon
       points="388,187 396,168 380,183 "
       style="fill:#ecb984"
       id="polygon109" />
    <polygon
       points="408,193 396,168 388,187 "
       style="fill:#f9d49d"
       id="polygon111" />
    <polygon
       points="396,168 369,156 380,183 "
       style="fill:#f9d49d"
       id="polygon113" />
    <polygon
       points="278,191 255,195 261,177 "
       style="fill:#edad87"
       id="polygon115" />
    <polygon
       points="277,203 301,203 278,191 "
       style="fill:#a55079"
       id="polygon117" />
    <polygon
       points="388,187 408,193 380,206 "
       style="fill:#f3bb7e"
       id="polygon119" />
    <polygon
       points="460,187 464,208 431,188 "
       style="fill:#f7bc76"
       id="polygon121" />
    <polygon
       points="362,192 342,208 344,188 "
       style="fill:#cc8571"
       id="polygon123" />
    <polygon
       points="380,183 380,206 362,192 "
       style="fill:#f7c185"
       id="polygon125" />
    <polygon
       points="490,213 482,192 460,187 "
       style="fill:#8a4256"
       id="polygon127" />
    <polygon
       points="380,206 361,205 362,192 "
       style="fill:#dc9d72"
       id="polygon129" />
    <polygon
       points="344,188 322,223 327,193 "
       style="fill:#c9766e"
       id="polygon131" />
    <polygon
       points="322,223 306,217 327,193 "
       style="fill:#a35370"
       id="polygon133" />
    <polygon
       points="278,191 277,203 255,195 "
       style="fill:#b4607a"
       id="polygon135" />
    <polygon
       points="277,203 252,222 255,195 "
       style="fill:#a5497a"
       id="polygon137" />
    <polygon
       points="306,217 327,193 309,185 301,203 "
       style="fill:#933a73"
       id="polygon139" />
    <polygon
       points="361,205 348,223 362,192 "
       style="fill:#c67468"
       id="polygon141" />
    <polygon
       points="361,205 380,206 348,223 "
       style="fill:#662366"
       id="polygon143" />
    <polygon
       points="520,205 520,192 482,192 490,213 "
       style="fill:#974f53"
       id="polygon145" />
    <polygon
       points="464,208 490,213 460,187 "
       style="fill:#e19e67"
       id="polygon147" />
    <polygon
       points="362,192 348,223 342,208 "
       style="fill:#b26369"
       id="polygon149" />
    <polygon
       points="520,205 529,218 490,213 "
       style="fill:#5e2a50"
       id="polygon151" />
    <polygon
       points="490,213 468,220 464,208 "
       style="fill:#db9460"
       id="polygon153" />
    <polygon
       points="301,203 277,203 294,221 306,217 "
       style="fill:#6a2774"
       id="polygon155" />
    <polygon
       points="529,218 500,245 490,213 "
       style="fill:#8f4a4f"
       id="polygon157" />
    <polygon
       points="252,222 294,221 277,203 "
       style="fill:#802a75"
       id="polygon159" />
    <polygon
       points="348,223 322,223 342,208 "
       style="fill:#f9c589"
       id="polygon161" />
    <polygon
       points="294,221 287,236 252,222 "
       style="fill:#a75472"
       id="polygon163" />
    <polygon
       points="348,223 331,253 322,223 "
       style="fill:#f1bb7f"
       id="polygon165" />
    <polygon
       points="348,223 342,245 331,253 "
       style="fill:#d8996e"
       id="polygon167" />
    <polygon
       points="529,218 498,273 500,245 "
       style="fill:#a05a50"
       id="polygon169" />
    <polygon
       points="351,253 345,280 331,253 "
       style="fill:#f8bf7a"
       id="polygon171" />
    <polygon
       points="509,320 520,279 498,273 "
       style="fill:#eea65a"
       id="polygon173" />
    <polygon
       points="498,273 471,303 468,284 "
       style="fill:#bb6c4b"
       id="polygon175" />
    <polygon
       points="498,273 509,320 471,303 "
       style="fill:#e89553"
       id="polygon177" />
    <polygon
       points="509,320 466,320 471,303 "
       style="fill:#b77954"
       id="polygon179" />
    <polygon
       points="509,320 468,338 466,320 "
       style="fill:#a15b53"
       id="polygon181" />
    <polygon
       points="509,320 522,330 520,279 "
       style="fill:#f2ba70"
       id="polygon183" />
    <polygon
       points="522,330 562,331 534,304 "
       style="fill:#bc7255"
       id="polygon185" />
    <polygon
       points="562,331 550,386 522,330 "
       style="fill:#a5625c"
       id="polygon187" />
    <polygon
       points="522,330 490,351 509,320 "
       style="fill:#cd8754"
       id="polygon189" />
    <polygon
       points="490,351 468,338 509,320 "
       style="fill:#af6751"
       id="polygon191" />
    <polygon
       points="490,351 440,382 468,338 "
       style="fill:#bf7b54"
       id="polygon193" />
    <polygon
       points="440,382 444,350 468,338 "
       style="fill:#a65e52"
       id="polygon195" />
    <polygon
       points="522,330 512,382 490,351 "
       style="fill:#e6a56d"
       id="polygon197" />
    <polygon
       points="512,382 469,394 490,351 "
       style="fill:#ce875b"
       id="polygon199" />
    <polygon
       points="469,394 440,382 490,351 "
       style="fill:#db925d"
       id="polygon201" />
    <polygon
       points="440,382 398,402 402,354 "
       style="fill:#753653"
       id="polygon203" />
    <polygon
       points="512,382 550,386 522,330 "
       style="fill:#8e4e5c"
       id="polygon205" />
    <polygon
       points="398,402 432,426 440,382 "
       style="fill:#712f53"
       id="polygon207" />
    <polygon
       points="432,426 469,394 440,382 "
       style="fill:#c37456"
       id="polygon209" />
    <polygon
       points="550,386 490,463 512,382 "
       style="fill:#6a275d"
       id="polygon211" />
    <polygon
       points="490,463 469,394 512,382 "
       style="fill:#7a385c"
       id="polygon213" />
    <polygon
       points="490,463 432,426 469,394 "
       style="fill:#9f4e5f"
       id="polygon215" />
    <polygon
       points="490,463 422,451 432,426 "
       style="fill:#812f5d"
       id="polygon217" />
    <polygon
       points="449,208 440,210 431,188 "
       style="fill:#c58468"
       id="polygon219" />
    <polygon
       points="410,172 408,193 396,168 "
       style="fill:#bc716b"
       id="polygon221" />
    <polygon
       points="408,193 431,188 410,172 "
       style="fill:#c58468"
       id="polygon223" />
    <polygon
       points="423,235 444,220 420,213 "
       style="fill:#d1885f"
       id="polygon225" />
    <polygon
       points="408,193 420,213 380,206 "
       style="fill:#d99c6f"
       id="polygon227" />
    <polygon
       points="440,210 431,188 408,193 "
       style="fill:#d59764"
       id="polygon229" />
    <polygon
       points="420,213 440,210 408,193 "
       style="fill:#d1885f"
       id="polygon231" />
    <polygon
       points="306,217 294,249 294,221 "
       style="fill:#87386f"
       id="polygon233" />
    <polygon
       points="287,236 294,221 294,249 "
       style="fill:#af5c6e"
       id="polygon235" />
    <polygon
       points="498,273 520,279 529,218 "
       style="fill:#c0724c"
       id="polygon237" />
    <polygon
       points="520,279 540,260 529,218 "
       style="fill:#d48c51"
       id="polygon239" />
    <polygon
       points="306,217 322,223 294,249 "
       style="fill:#af5c6e"
       id="polygon241" />
    <polygon
       points="287,236 294,249 252,222 "
       style="fill:#55276f"
       id="polygon243" />
    <polygon
       points="342,245 351,253 331,253 "
       style="fill:#ebac79"
       id="polygon245" />
    <polygon
       points="294,249 245,245 252,222 "
       style="fill:#662873"
       id="polygon247" />
    <polygon
       points="294,249 266,270 245,245 "
       style="fill:#7a2b6d"
       id="polygon249" />
    <polygon
       points="322,223 331,253 294,249 "
       style="fill:#d4846b"
       id="polygon251" />
    <polygon
       points="331,253 299,264 294,249 "
       style="fill:#ebac79"
       id="polygon253" />
    <polygon
       points="331,253 345,280 299,264 "
       style="fill:#e29f70"
       id="polygon255" />
    <polygon
       points="522,330 534,304 520,279 "
       style="fill:#edb05f"
       id="polygon257" />
    <polygon
       points="534,304 540,260 520,279 "
       style="fill:#dc9b59"
       id="polygon259" />
    <polygon
       points="534,304 562,331 540,260 "
       style="fill:#ca834d"
       id="polygon261" />
    <polygon
       points="299,264 266,270 294,249 "
       style="fill:#d68c6f"
       id="polygon263" />
    <polygon
       points="299,264 272,301 266,270 "
       style="fill:#b46868"
       id="polygon265" />
    <polygon
       points="272,301 234,399 220,306 "
       style="fill:#985066"
       id="polygon267" />
    <polygon
       points="471,303 452,311 468,284 "
       style="fill:#fac174"
       id="polygon269" />
    <polygon
       points="440,382 402,354 444,350 "
       style="fill:#5a2750"
       id="polygon271" />
    <polygon
       points="367,430 368,409 297,376 "
       style="fill:#bc7652"
       id="polygon273" />
    <polygon
       points="297,376 367,430 234,399 "
       style="fill:#4f1e56"
       id="polygon275" />
    <polygon
       points="422,451 418,476 406,445 "
       style="fill:#984b5b"
       id="polygon277" />
    <polygon
       points="390,471 394,525 234,399 "
       style="fill:#5d2c4c"
       id="polygon279" />
    <polygon
       points="422,451 406,445 432,426 "
       style="fill:#854659"
       id="polygon281" />
    <polygon
       points="432,426 391,420 406,445 "
       style="fill:#a45b55"
       id="polygon283" />
    <polygon
       points="367,430 390,471 234,399 "
       style="fill:#5d2552"
       id="polygon285" />
    <polygon
       points="390,471 418,476 406,445 "
       style="fill:#853e5c"
       id="polygon287" />
    <polygon
       points="418,476 490,463 422,451 "
       style="fill:#5d2552"
       id="polygon289" />
    <polygon
       points="490,463 394,525 418,476 "
       style="fill:#732f62"
       id="polygon291" />
    <polygon
       points="418,476 390,471 394,525 "
       style="fill:#914758"
       id="polygon293" />
    <polygon
       points="351,253 348,223 342,245 "
       style="fill:#974e65"
       id="polygon295" />
    <polygon
       points="272,301 220,306 266,270 "
       style="fill:#a85e6d"
       id="polygon297" />
    <polygon
       points="266,270 245,245 220,306 "
       style="fill:#7a336f"
       id="polygon299" />
    <polygon
       points="365,226 379,245 351,253 "
       style="fill:#c78c6c"
       id="polygon301" />
    <polygon
       points="452,311 441,282 468,284 "
       style="fill:#f8d088"
       id="polygon303" />
    <polygon
       points="441,282 427,295 430,276 "
       style="fill:#633752"
       id="polygon305" />
    <polygon
       points="441,282 452,311 427,295 "
       style="fill:#f7db9c"
       id="polygon307" />
    <polygon
       points="427,295 405,315 416,283 "
       style="fill:#fad58e"
       id="polygon309" />
    <polygon
       points="234,399 297,376 272,301 "
       style="fill:#6c2861"
       id="polygon311" />
    <polygon
       points="405,315 427,306 427,295 "
       style="fill:#c9a26b"
       id="polygon313" />
    <polygon
       points="427,312 452,317 427,306 "
       style="fill:#744154"
       id="polygon315" />
    <polygon
       points="297,376 307,309 272,301 "
       style="fill:#ac6960"
       id="polygon317" />
    <polygon
       points="427,306 427,312 405,315 "
       style="fill:#5f3752"
       id="polygon319" />
    <polygon
       points="427,312 422,323 405,315 "
       style="fill:#c99667"
       id="polygon321" />
    <polygon
       points="466,320 468,338 452,317 "
       style="fill:#f2b66e"
       id="polygon323" />
    <polygon
       points="468,338 444,350 452,317 "
       style="fill:#f9cc89"
       id="polygon325" />
    <polygon
       points="444,350 413,335 402,354 "
       style="fill:#d3a46c"
       id="polygon327" />
    <polygon
       points="422,323 383,331 413,335 "
       style="fill:#e8b576"
       id="polygon329" />
    <polygon
       points="364,359 368,409 297,376 "
       style="fill:#d88f5a"
       id="polygon331" />
    <polygon
       points="368,409 381,361 364,359 "
       style="fill:#ad654f"
       id="polygon333" />
    <polygon
       points="390,471 406,445 367,430 "
       style="fill:#792e55"
       id="polygon335" />
    <polygon
       points="444,350 422,323 413,335 "
       style="fill:#f1bf7a"
       id="polygon337" />
    <polygon
       points="413,335 402,354 383,331 "
       style="fill:#c39160"
       id="polygon339" />
    <polygon
       points="422,323 383,331 405,315 "
       style="fill:#bb875f"
       id="polygon341" />
    <polygon
       points="444,350 452,317 422,323 "
       style="fill:#f7d79a"
       id="polygon343" />
    <polygon
       points="452,317 427,312 422,323 "
       style="fill:#deb072"
       id="polygon345" />
    <polygon
       points="452,317 452,311 471,303 466,320 "
       style="fill:#d38e57"
       id="polygon347" />
    <polygon
       points="452,317 427,306 452,311 "
       style="fill:#deb072"
       id="polygon349" />
    <polygon
       points="452,311 427,295 427,306 "
       style="fill:#b88864"
       id="polygon351" />
    <polygon
       points="405,315 377,307 376,322 "
       style="fill:#8e4453"
       id="polygon353" />
    <polygon
       points="377,307 368,290 365,311 "
       style="fill:#a06057"
       id="polygon355" />
    <polygon
       points="405,315 394,295 377,307 "
       style="fill:#e2a76b"
       id="polygon357" />
    <polygon
       points="394,295 416,283 405,315 "
       style="fill:#f9db9f"
       id="polygon359" />
    <polygon
       points="297,376 354,312 307,309 "
       style="fill:#e79c62"
       id="polygon361" />
    <polygon
       points="377,307 394,295 368,290 "
       style="fill:#c5885b"
       id="polygon363" />
    <polygon
       points="354,312 345,280 307,309 "
       style="fill:#d6895d"
       id="polygon365" />
    <polygon
       points="345,280 322,272 307,309 "
       style="fill:#eaa267"
       id="polygon367" />
    <polygon
       points="394,295 416,283 400,276 "
       style="fill:#f7c684"
       id="polygon369" />
    <polygon
       points="427,295 416,283 430,276 "
       style="fill:#4f2150"
       id="polygon371" />
    <polygon
       points="455,268 430,276 441,282 "
       style="fill:#442551"
       id="polygon373" />
    <polygon
       points="430,276 409,268 429,268 "
       style="fill:#905952"
       id="polygon375" />
    <polygon
       points="409,268 400,276 416,283 430,276 "
       style="fill:#3f1c53"
       id="polygon377" />
    <polygon
       points="394,295 400,276 368,290 "
       style="fill:#f9bd74"
       id="polygon379" />
    <polygon
       points="400,276 379,266 368,290 "
       style="fill:#be7356"
       id="polygon381" />
    <polygon
       points="322,272 272,301 307,309 "
       style="fill:#c67b5c"
       id="polygon383" />
    <polygon
       points="322,272 299,264 272,301 "
       style="fill:#c68464"
       id="polygon385" />
    <polygon
       points="455,268 429,268 430,276 "
       style="fill:#744855"
       id="polygon387" />
    <polygon
       points="379,266 345,280 368,290 "
       style="fill:#98525a"
       id="polygon389" />
    <polygon
       points="379,266 351,253 345,280 "
       style="fill:#b1625d"
       id="polygon391" />
    <polygon
       points="368,290 354,312 345,280 "
       style="fill:#b1625d"
       id="polygon393" />
    <polygon
       points="455,268 444,254 429,268 "
       style="fill:#d89f6a"
       id="polygon395" />
    <polygon
       points="455,268 457,248 444,254 "
       style="fill:#c47f55"
       id="polygon397" />
    <polygon
       points="444,254 423,235 414,254 "
       style="fill:#bd7859"
       id="polygon399" />
    <polygon
       points="348,223 365,226 351,253 "
       style="fill:#eaaf77"
       id="polygon401" />
    <polygon
       points="365,226 361,216 348,223 "
       style="fill:#e09b72"
       id="polygon403" />
    <polygon
       points="406,445 391,420 367,430 "
       style="fill:#743854"
       id="polygon405" />
    <polygon
       points="391,420 368,409 367,430 "
       style="fill:#8e4c50"
       id="polygon407" />
    <polygon
       points="391,420 398,402 368,409 "
       style="fill:#6d3a3d"
       id="polygon409" />
    <polygon
       points="391,420 432,426 398,402 "
       style="fill:#a5585d"
       id="polygon411" />
    <polygon
       points="398,402 381,361 368,409 "
       style="fill:#87484c"
       id="polygon413" />
    <polygon
       points="398,402 402,354 381,361 "
       style="fill:#571c4f"
       id="polygon415" />
    <polygon
       points="383,331 381,361 402,354 "
       style="fill:#6b3b51"
       id="polygon417" />
    <polygon
       points="405,315 376,322 383,331 "
       style="fill:#6b3b51"
       id="polygon419" />
    <polygon
       points="376,322 365,311 377,307 "
       style="fill:#7e3854"
       id="polygon421" />
    <polygon
       points="297,376 364,359 354,312 "
       style="fill:#e9a461"
       id="polygon423" />
    <polygon
       points="383,331 376,322 365,311 354,312 364,359 381,361 "
       style="fill:#571c4f"
       id="polygon425" />
    <polygon
       points="365,311 368,290 354,312 "
       style="fill:#8d4956"
       id="polygon427" />
    <polygon
       points="468,284 455,268 441,282 "
       style="fill:#f2b974"
       id="polygon429" />
    <polygon
       points="444,254 414,254 429,268 "
       style="fill:#c8885c"
       id="polygon431" />
    <polygon
       points="429,268 409,268 414,254 "
       style="fill:#cd9566"
       id="polygon433" />
    <polygon
       points="379,245 379,266 351,253 "
       style="fill:#ac7068"
       id="polygon435" />
    <polygon
       points="409,268 394,265 400,276 "
       style="fill:#6c2e57"
       id="polygon437" />
    <polygon
       points="414,254 379,245 379,266 400,276 394,265 409,268 "
       style="fill:#9d5c58"
       id="polygon439" />
    <polygon
       points="379,245 383,226 365,226 "
       style="fill:#cd9971"
       id="polygon441" />
    <polygon
       points="420,213 423,235 391,224 "
       style="fill:#b26d5d"
       id="polygon443" />
    <polygon
       points="383,226 391,224 423,235 414,254 379,245 "
       style="fill:#91535d"
       id="polygon445" />
    <polygon
       points="391,224 379,218 383,226 "
       style="fill:#b0746a"
       id="polygon447" />
    <polygon
       points="383,226 367,218 379,218 "
       style="fill:#f0bd8a"
       id="polygon449" />
    <polygon
       points="383,226 367,218 365,226 "
       style="fill:#f6da9b"
       id="polygon451" />
    <polygon
       points="367,218 361,216 365,226 "
       style="fill:#f9f0b8"
       id="polygon453" />
    <polygon
       points="372,210 361,216 367,218 "
       style="fill:#9e5663"
       id="polygon455" />
    <polygon
       points="420,213 391,224 380,206 "
       style="fill:#cc8a6a"
       id="polygon457" />
    <polygon
       points="379,218 372,210 367,218 "
       style="fill:#da9172"
       id="polygon459" />
    <polygon
       points="391,224 379,218 372,210 372,210 380,206 "
       style="fill:#7b3962"
       id="polygon461" />
    <polygon
       points="468,284 474,260 455,268 "
       style="fill:#d49a5a"
       id="polygon463" />
    <polygon
       points="498,273 468,284 500,245 "
       style="fill:#c87a4c"
       id="polygon465" />
    <polygon
       points="487,235 500,245 490,213 "
       style="fill:#da8951"
       id="polygon467" />
    <polygon
       points="490,213 487,235 468,220 "
       style="fill:#f2af67"
       id="polygon469" />
    <polygon
       points="474,260 472,231 455,268 "
       style="fill:#c78052"
       id="polygon471" />
    <polygon
       points="468,284 500,245 487,235 468,220 460,226 472,231 474,260 "
       style="fill:#eca45f"
       id="polygon473" />
    <polygon
       points="440,210 449,208 444,220 "
       style="fill:#bb7e5a"
       id="polygon475" />
    <polygon
       points="460,226 461,217 468,220 "
       style="fill:#f7f0ae"
       id="polygon477" />
    <polygon
       points="464,208 449,208 431,188 "
       style="fill:#ac5d58"
       id="polygon479" />
    <polygon
       points="464,208 468,220 461,217 451,221 "
       style="fill:#4c2055"
       id="polygon481" />
    <polygon
       points="472,231 457,248 455,268 "
       style="fill:#e9b674"
       id="polygon483" />
    <polygon
       points="461,217 451,221 460,226 "
       style="fill:#f5d997"
       id="polygon485" />
    <polygon
       points="440,210 444,220 420,213 "
       style="fill:#d9a46e"
       id="polygon487" />
    <polygon
       points="460,226 451,221 444,220 457,248 472,231 "
       style="fill:#f7c07b"
       id="polygon489" />
    <polygon
       points="444,254 457,248 444,220 423,235 "
       style="fill:#d89b65"
       id="polygon491" />
    <polygon
       points="456,216 446,215 451,221 "
       style="fill:#d89b65"
       id="polygon493" />
    <polygon
       points="451,221 444,220 446,215 "
       style="fill:#682b58"
       id="polygon495" />
    <polygon
       points="464,208 456,216 446,215 449,208 "
       style="fill:#682b58"
       id="polygon497" />
  </g>
</svg>
